<svg width="1178" height="270" viewBox="0 0 1178 270" fill="none" xmlns="http://www.w3.org/2000/svg">
<path d="M153.925 129.387H105.341V3.23883H153.925V129.387ZM209.408 129.387H160.824V3.23883L209.408 129.387ZM327.885 129.387H279.301H327.885ZM279.301 74.3249V3.23883H327.885V129.387H279.301L209.408 58.3007V129.387H160.824V3.23883H209.408L279.301 74.3249ZM422.292 61.0282L485.877 129.387H428.258L383.254 78.9276V129.387H334.67V3.23883H383.254V44.8335L425.36 3.23883H483.49L422.292 61.0282ZM456.996 66.4832C456.996 53.8685 460.803 42.5038 468.417 32.3892C476.145 22.2747 486.601 14.3762 499.784 8.69387C513.08 2.89788 527.798 -0.000115558 543.935 -0.000115558C559.05 -0.000115558 572.518 2.38647 584.337 7.15964C596.27 11.8191 605.873 18.4107 613.146 26.9342C620.533 35.344 625.136 45.004 626.954 55.9141H576.495C574.336 50.0045 570.074 45.2881 563.71 41.7651C557.459 38.242 550.925 36.4805 544.106 36.4805C538.083 36.4805 532.287 37.6738 526.718 40.0604C521.263 42.447 516.774 45.9132 513.251 50.459C509.841 55.0049 508.137 60.3463 508.137 66.4832C508.137 72.6202 509.841 77.9616 513.251 82.5074C516.774 86.9397 521.263 90.3491 526.718 92.7356C532.287 95.1222 538.083 96.3155 544.106 96.3155C551.607 96.3155 558.198 94.6676 563.88 91.3719C569.563 88.0761 573.711 83.3598 576.325 77.2229H626.784C624.852 88.0193 620.249 97.6225 612.976 106.032C605.702 114.442 596.099 121.034 584.166 125.807C572.347 130.466 558.937 132.796 543.935 132.796C527.911 132.796 513.251 129.898 499.954 124.102C486.657 118.306 476.145 110.351 468.417 100.236C460.803 90.1218 456.996 78.8707 456.996 66.4832ZM679.006 3.23883V92.7356H754.866V129.387H630.422V3.23883H679.006ZM861.901 3.23883H911.508V66.9946C911.508 79.2685 907.928 90.4627 900.768 100.577C893.722 110.578 884.289 118.477 872.47 124.273C860.651 129.955 847.809 132.796 833.944 132.796C818.715 132.796 804.964 129.955 792.69 124.273C780.416 118.59 770.756 110.805 763.71 100.918C756.778 90.9173 753.254 79.7231 753.141 67.3356V3.23883H803.77V66.8242C803.77 75.9159 806.498 82.6211 811.953 86.9397C817.522 91.1446 824.909 93.2471 834.114 93.2471C841.615 93.2471 848.093 91.0878 853.548 86.7692C859.116 82.337 861.901 75.6886 861.901 66.8242V3.23883ZM1055.43 63.2443C1064.97 65.1763 1072.19 68.5289 1077.08 73.302C1081.96 77.9616 1084.41 84.6667 1084.41 93.4175V94.0994C1084.41 106.146 1078.9 115.067 1067.87 120.863C1056.96 126.546 1041.9 129.387 1022.7 129.387H1022.36H1016.9H917.518V3.23883H1030.54C1043.72 3.35247 1054.24 6.07999 1062.08 11.4214C1069.92 16.7628 1073.84 24.3203 1073.84 34.0939V34.7758C1073.84 42.1628 1072.3 48.1861 1069.24 52.8456C1066.17 57.5051 1061.57 60.9714 1055.43 63.2443ZM1005.99 51.9933C1011.11 51.9933 1014.91 51.8796 1017.41 51.6523C1019.91 51.3114 1022.02 50.459 1023.72 49.0953C1025.54 47.6179 1026.45 45.1745 1026.45 41.7651C1026.45 38.6966 1025.6 36.4805 1023.89 35.1167C1022.3 33.753 1020.14 32.9006 1017.41 32.5597C1014.8 32.2187 1010.99 32.0483 1005.99 32.0483H1005.82H962.693V51.8228L997.469 51.9933H1005.99ZM1011.62 97.5088C1017.53 97.5088 1021.96 97.3383 1024.91 96.9974C1027.98 96.6565 1030.37 95.7473 1032.07 94.2699C1033.89 92.6788 1034.8 90.1786 1034.8 86.7692C1034.8 83.4734 1033.89 81.1437 1032.07 79.7799C1030.37 78.3025 1027.98 77.3933 1024.91 77.0524C1021.96 76.7114 1017.53 76.541 1011.62 76.541H1011.45H962.693V97.3383C977.58 97.3383 987.979 97.3952 993.889 97.5088C999.912 97.5088 1004 97.5088 1006.16 97.5088H1011.62Z" fill="#161616"/>
<mask id="path-2-outside-1_580_3290" maskUnits="userSpaceOnUse" x="-0.40625" y="133.807" width="1174" height="136" fill="black">
<rect fill="white" x="-0.40625" y="133.807" width="1174" height="136"/>
<path d="M138.911 198.665C148.457 200.597 155.674 203.95 160.56 208.723C165.447 213.382 167.891 220.087 167.891 228.838V229.52C167.891 241.567 162.379 250.488 151.355 256.284C140.445 261.966 125.387 264.807 106.181 264.807H105.84H100.385H1.00045V138.66H114.022C127.205 138.773 137.717 141.501 145.559 146.842C153.401 152.184 157.322 159.741 157.322 169.515V170.197C157.322 177.584 155.787 183.607 152.719 188.266C149.65 192.926 145.048 196.392 138.911 198.665ZM89.4744 187.414C94.5886 187.414 98.3957 187.3 100.896 187.073C103.396 186.732 105.499 185.88 107.203 184.516C109.022 183.039 109.931 180.595 109.931 177.186C109.931 174.117 109.079 171.901 107.374 170.538C105.783 169.174 103.623 168.321 100.896 167.98C98.2821 167.64 94.4749 167.469 89.4744 167.469H89.304H46.175V187.244L80.9509 187.414H89.4744ZM95.1 232.93C101.01 232.93 105.442 232.759 108.397 232.418C111.465 232.077 113.852 231.168 115.556 229.691C117.375 228.1 118.284 225.599 118.284 222.19C118.284 218.894 117.375 216.564 115.556 215.201C113.852 213.723 111.465 212.814 108.397 212.473C105.442 212.132 101.01 211.962 95.1 211.962H94.9295H46.175V232.759C61.0628 232.759 71.4614 232.816 77.3711 232.93C83.3943 232.93 87.4856 232.93 89.6449 232.93H95.1ZM295.112 218.099H219.935V231.225L309.432 230.713V264.807H171.351V138.66H309.432L309.602 172.754H219.935V184.857H295.112V218.099ZM411.409 264.807L376.462 224.065H359.927V264.807H313.9V138.66H412.091C422.66 138.66 431.979 140.421 440.048 143.944C448.23 147.467 454.538 152.411 458.97 158.775C463.516 165.026 465.789 172.299 465.789 180.595V181.277C465.789 192.074 462.606 200.995 456.242 208.041C449.992 215.087 441.298 219.803 430.16 222.19L466.811 264.807H411.409ZM420.955 181.277C420.955 177.868 420.159 175.424 418.568 173.947C417.091 172.356 415.045 171.39 412.431 171.049C409.931 170.708 406.067 170.538 400.839 170.538H395.384C391.861 170.651 380.042 170.708 359.927 170.708V191.505H400.669H400.839C406.067 191.505 409.931 191.335 412.431 190.994C415.045 190.653 417.091 189.801 418.568 188.437C420.159 186.959 420.955 184.573 420.955 181.277ZM553.967 220.656V196.449H636.645V264.807H605.96L602.892 256.966C588.913 264.467 572.548 268.217 553.796 268.217C537.772 268.217 523.112 265.319 509.815 259.523C496.518 253.727 486.006 245.772 478.278 235.657C470.664 225.543 466.857 214.292 466.857 201.904C466.857 189.289 470.664 177.925 478.278 167.81C486.006 157.695 496.462 149.797 509.645 144.115C522.941 138.319 537.659 135.421 553.796 135.421C569.025 135.421 582.549 137.523 594.368 141.728C606.301 145.933 615.904 151.956 623.178 159.798C630.451 167.64 634.997 177.015 636.815 187.925H586.356C584.652 182.129 580.844 178.038 574.935 175.652C569.139 173.151 562.149 171.901 553.967 171.901C548.057 171.901 542.602 173.095 537.602 175.481C532.715 177.868 528.794 181.334 525.839 185.88C522.885 190.426 521.407 195.767 521.407 201.904C521.407 208.041 522.885 213.382 525.839 217.928C528.794 222.36 532.715 225.77 537.602 228.156C542.602 230.543 548.057 231.736 553.967 231.736C559.763 231.736 565.104 230.827 569.991 229.009C574.992 227.077 578.969 224.292 581.924 220.656H553.967ZM815.356 264.807H766.772L756.374 245.715H689.038L678.639 264.807H630.055L698.414 138.66H746.998L815.356 264.807ZM722.791 183.493L705.744 214.689H739.667L722.791 183.493ZM999.142 138.66V264.807H950.558V218.61L928.056 264.807H884.586L860.549 218.099V264.807H811.965V138.66H866.516L906.406 220.315L946.125 138.66H999.142ZM1087.61 135.932C1103.63 135.932 1118.07 138.83 1130.91 144.626C1143.75 150.308 1153.81 158.207 1161.08 168.321C1168.36 178.322 1171.99 189.63 1171.99 202.245C1171.99 214.746 1168.36 225.997 1161.08 235.998C1153.81 245.999 1143.75 253.897 1130.91 259.693C1118.07 265.376 1103.63 268.217 1087.61 268.217C1072.27 268.217 1058.06 265.376 1044.99 259.693C1032.04 253.897 1021.7 245.999 1013.97 235.998C1006.35 225.883 1002.55 214.632 1002.55 202.245C1002.55 189.744 1006.35 178.436 1013.97 168.321C1021.7 158.207 1032.04 150.308 1044.99 144.626C1058.06 138.83 1072.27 135.932 1087.61 135.932ZM1087.78 232.077C1093.24 232.077 1098.46 230.884 1103.46 228.497C1108.58 226.111 1112.73 222.645 1115.91 218.099C1119.09 213.553 1120.68 208.268 1120.68 202.245C1120.68 196.108 1119.09 190.823 1115.91 186.391C1112.73 181.845 1108.58 178.379 1103.46 175.993C1098.46 173.606 1093.24 172.413 1087.78 172.413C1082.44 172.413 1077.21 173.606 1072.1 175.993C1067.1 178.379 1062.95 181.845 1059.65 186.391C1056.47 190.823 1054.88 196.108 1054.88 202.245C1054.88 208.268 1056.47 213.553 1059.65 218.099C1062.95 222.645 1067.1 226.111 1072.1 228.497C1077.21 230.884 1082.44 232.077 1087.78 232.077Z"/>
</mask>
<path d="M138.911 198.665C148.457 200.597 155.674 203.95 160.56 208.723C165.447 213.382 167.891 220.087 167.891 228.838V229.52C167.891 241.567 162.379 250.488 151.355 256.284C140.445 261.966 125.387 264.807 106.181 264.807H105.84H100.385H1.00045V138.66H114.022C127.205 138.773 137.717 141.501 145.559 146.842C153.401 152.184 157.322 159.741 157.322 169.515V170.197C157.322 177.584 155.787 183.607 152.719 188.266C149.65 192.926 145.048 196.392 138.911 198.665ZM89.4744 187.414C94.5886 187.414 98.3957 187.3 100.896 187.073C103.396 186.732 105.499 185.88 107.203 184.516C109.022 183.039 109.931 180.595 109.931 177.186C109.931 174.117 109.079 171.901 107.374 170.538C105.783 169.174 103.623 168.321 100.896 167.98C98.2821 167.64 94.4749 167.469 89.4744 167.469H89.304H46.175V187.244L80.9509 187.414H89.4744ZM95.1 232.93C101.01 232.93 105.442 232.759 108.397 232.418C111.465 232.077 113.852 231.168 115.556 229.691C117.375 228.1 118.284 225.599 118.284 222.19C118.284 218.894 117.375 216.564 115.556 215.201C113.852 213.723 111.465 212.814 108.397 212.473C105.442 212.132 101.01 211.962 95.1 211.962H94.9295H46.175V232.759C61.0628 232.759 71.4614 232.816 77.3711 232.93C83.3943 232.93 87.4856 232.93 89.6449 232.93H95.1ZM295.112 218.099H219.935V231.225L309.432 230.713V264.807H171.351V138.66H309.432L309.602 172.754H219.935V184.857H295.112V218.099ZM411.409 264.807L376.462 224.065H359.927V264.807H313.9V138.66H412.091C422.66 138.66 431.979 140.421 440.048 143.944C448.23 147.467 454.538 152.411 458.97 158.775C463.516 165.026 465.789 172.299 465.789 180.595V181.277C465.789 192.074 462.606 200.995 456.242 208.041C449.992 215.087 441.298 219.803 430.16 222.19L466.811 264.807H411.409ZM420.955 181.277C420.955 177.868 420.159 175.424 418.568 173.947C417.091 172.356 415.045 171.39 412.431 171.049C409.931 170.708 406.067 170.538 400.839 170.538H395.384C391.861 170.651 380.042 170.708 359.927 170.708V191.505H400.669H400.839C406.067 191.505 409.931 191.335 412.431 190.994C415.045 190.653 417.091 189.801 418.568 188.437C420.159 186.959 420.955 184.573 420.955 181.277ZM553.967 220.656V196.449H636.645V264.807H605.96L602.892 256.966C588.913 264.467 572.548 268.217 553.796 268.217C537.772 268.217 523.112 265.319 509.815 259.523C496.518 253.727 486.006 245.772 478.278 235.657C470.664 225.543 466.857 214.292 466.857 201.904C466.857 189.289 470.664 177.925 478.278 167.81C486.006 157.695 496.462 149.797 509.645 144.115C522.941 138.319 537.659 135.421 553.796 135.421C569.025 135.421 582.549 137.523 594.368 141.728C606.301 145.933 615.904 151.956 623.178 159.798C630.451 167.64 634.997 177.015 636.815 187.925H586.356C584.652 182.129 580.844 178.038 574.935 175.652C569.139 173.151 562.149 171.901 553.967 171.901C548.057 171.901 542.602 173.095 537.602 175.481C532.715 177.868 528.794 181.334 525.839 185.88C522.885 190.426 521.407 195.767 521.407 201.904C521.407 208.041 522.885 213.382 525.839 217.928C528.794 222.36 532.715 225.77 537.602 228.156C542.602 230.543 548.057 231.736 553.967 231.736C559.763 231.736 565.104 230.827 569.991 229.009C574.992 227.077 578.969 224.292 581.924 220.656H553.967ZM815.356 264.807H766.772L756.374 245.715H689.038L678.639 264.807H630.055L698.414 138.66H746.998L815.356 264.807ZM722.791 183.493L705.744 214.689H739.667L722.791 183.493ZM999.142 138.66V264.807H950.558V218.61L928.056 264.807H884.586L860.549 218.099V264.807H811.965V138.66H866.516L906.406 220.315L946.125 138.66H999.142ZM1087.61 135.932C1103.63 135.932 1118.07 138.83 1130.91 144.626C1143.75 150.308 1153.81 158.207 1161.08 168.321C1168.36 178.322 1171.99 189.63 1171.99 202.245C1171.99 214.746 1168.36 225.997 1161.08 235.998C1153.81 245.999 1143.75 253.897 1130.91 259.693C1118.07 265.376 1103.63 268.217 1087.61 268.217C1072.27 268.217 1058.06 265.376 1044.99 259.693C1032.04 253.897 1021.7 245.999 1013.97 235.998C1006.35 225.883 1002.55 214.632 1002.55 202.245C1002.55 189.744 1006.35 178.436 1013.97 168.321C1021.7 158.207 1032.04 150.308 1044.99 144.626C1058.06 138.83 1072.27 135.932 1087.61 135.932ZM1087.78 232.077C1093.24 232.077 1098.46 230.884 1103.46 228.497C1108.58 226.111 1112.73 222.645 1115.91 218.099C1119.09 213.553 1120.68 208.268 1120.68 202.245C1120.68 196.108 1119.09 190.823 1115.91 186.391C1112.73 181.845 1108.58 178.379 1103.46 175.993C1098.46 173.606 1093.24 172.413 1087.78 172.413C1082.44 172.413 1077.21 173.606 1072.1 175.993C1067.1 178.379 1062.95 181.845 1059.65 186.391C1056.47 190.823 1054.88 196.108 1054.88 202.245C1054.88 208.268 1056.47 213.553 1059.65 218.099C1062.95 222.645 1067.1 226.111 1072.1 228.497C1077.21 230.884 1082.44 232.077 1087.78 232.077Z" fill="#161616"/>
<path d="M138.911 198.665L138.563 197.727L135.268 198.948L138.712 199.645L138.911 198.665ZM160.56 208.723L159.862 209.438L159.87 209.447L160.56 208.723ZM151.355 256.284L151.817 257.171L151.82 257.169L151.355 256.284ZM1.00045 264.807H0.000450923V265.807H1.00045V264.807ZM1.00045 138.66V137.66H0.000450923V138.66H1.00045ZM114.022 138.66L114.031 137.66H114.022V138.66ZM152.719 188.266L153.554 188.816L153.554 188.816L152.719 188.266ZM100.896 187.073L100.986 188.069L101.009 188.067L101.031 188.064L100.896 187.073ZM107.203 184.516L107.828 185.297L107.834 185.292L107.203 184.516ZM107.374 170.538L106.723 171.297L106.736 171.308L106.749 171.318L107.374 170.538ZM100.896 167.98L100.767 168.972L100.772 168.973L100.896 167.98ZM46.175 167.469V166.469H45.175V167.469H46.175ZM46.175 187.244H45.175V188.239L46.1701 188.244L46.175 187.244ZM80.9509 187.414L80.946 188.414H80.9509V187.414ZM108.397 232.418L108.286 231.424L108.282 231.425L108.397 232.418ZM115.556 229.691L116.211 230.446L116.215 230.443L115.556 229.691ZM115.556 215.201L114.901 215.956L114.928 215.98L114.956 216.001L115.556 215.201ZM108.397 212.473L108.282 213.467L108.286 213.467L108.397 212.473ZM46.175 211.962V210.962H45.175V211.962H46.175ZM46.175 232.759H45.175V233.759H46.175V232.759ZM77.3711 232.93L77.3518 233.929L77.3615 233.93H77.3711V232.93ZM138.911 198.665L138.712 199.645C148.147 201.555 155.16 204.845 159.862 209.438L160.56 208.723L161.259 208.007C156.188 203.054 148.768 199.64 139.109 197.685L138.911 198.665ZM160.56 208.723L159.87 209.447C164.505 213.866 166.891 220.276 166.891 228.838H167.891H168.891C168.891 219.899 166.389 212.899 161.251 207.999L160.56 208.723ZM167.891 228.838H166.891V229.52H167.891H168.891V228.838H167.891ZM167.891 229.52H166.891C166.891 235.386 165.551 240.44 162.906 244.72C160.26 249.003 156.273 252.568 150.89 255.399L151.355 256.284L151.82 257.169C157.461 254.204 161.741 250.411 164.608 245.772C167.475 241.131 168.891 235.701 168.891 229.52H167.891ZM151.355 256.284L150.893 255.397C140.184 260.975 125.308 263.807 106.181 263.807V264.807V265.807C125.466 265.807 140.706 262.958 151.817 257.171L151.355 256.284ZM106.181 264.807V263.807H105.84V264.807V265.807H106.181V264.807ZM105.84 264.807V263.807H100.385V264.807V265.807H105.84V264.807ZM100.385 264.807V263.807H1.00045V264.807V265.807H100.385V264.807ZM1.00045 264.807H2.00045V138.66H1.00045H0.000450923V264.807H1.00045ZM1.00045 138.66V139.66H114.022V138.66V137.66H1.00045V138.66ZM114.022 138.66L114.014 139.66C127.073 139.772 137.37 142.474 144.996 147.669L145.559 146.842L146.122 146.016C138.065 140.527 127.337 137.774 114.031 137.66L114.022 138.66ZM145.559 146.842L144.996 147.669C152.555 152.817 156.322 160.06 156.322 169.515H157.322H158.322C158.322 159.422 154.247 151.55 146.122 146.016L145.559 146.842ZM157.322 169.515H156.322V170.197H157.322H158.322V169.515H157.322ZM157.322 170.197H156.322C156.322 177.45 154.815 183.265 151.884 187.716L152.719 188.266L153.554 188.816C156.76 183.948 158.322 177.717 158.322 170.197H157.322ZM152.719 188.266L151.884 187.716C148.952 192.169 144.536 195.515 138.563 197.727L138.911 198.665L139.258 199.603C145.559 197.269 150.349 193.683 153.554 188.816L152.719 188.266ZM89.4744 187.414V188.414C94.5946 188.414 98.4391 188.301 100.986 188.069L100.896 187.073L100.805 186.077C98.3524 186.3 94.5825 186.414 89.4744 186.414V187.414ZM100.896 187.073L101.031 188.064C103.682 187.702 105.961 186.79 107.828 185.297L107.203 184.516L106.579 183.735C105.036 184.969 103.11 185.762 100.761 186.082L100.896 187.073ZM107.203 184.516L107.834 185.292C109.977 183.551 110.931 180.755 110.931 177.186H109.931H108.931C108.931 180.436 108.066 182.527 106.573 183.74L107.203 184.516ZM109.931 177.186H110.931C110.931 173.943 110.026 171.379 107.999 169.757L107.374 170.538L106.749 171.318C108.131 172.424 108.931 174.292 108.931 177.186H109.931ZM107.374 170.538L108.025 169.778C106.245 168.253 103.882 167.346 101.02 166.988L100.896 167.98L100.772 168.973C103.365 169.297 105.321 170.095 106.723 171.297L107.374 170.538ZM100.896 167.98L101.025 166.989C98.346 166.639 94.4871 166.469 89.4744 166.469V167.469V168.469C94.4627 168.469 98.2181 168.64 100.767 168.972L100.896 167.98ZM89.4744 167.469V166.469H89.304V167.469V168.469H89.4744V167.469ZM89.304 167.469V166.469H46.175V167.469V168.469H89.304V167.469ZM46.175 167.469H45.175V187.244H46.175H47.175V167.469H46.175ZM46.175 187.244L46.1701 188.244L80.946 188.414L80.9509 187.414L80.9558 186.414L46.1799 186.244L46.175 187.244ZM80.9509 187.414V188.414H89.4744V187.414V186.414H80.9509V187.414ZM95.1 232.93V233.93C101.018 233.93 105.497 233.759 108.511 233.412L108.397 232.418L108.282 231.425C105.386 231.759 101.001 231.93 95.1 231.93V232.93ZM108.397 232.418L108.507 233.412C111.705 233.057 114.306 232.097 116.211 230.446L115.556 229.691L114.901 228.935C113.397 230.239 111.226 231.098 108.286 231.424L108.397 232.418ZM115.556 229.691L116.215 230.443C118.328 228.594 119.284 225.765 119.284 222.19H118.284H117.284C117.284 225.434 116.421 227.605 114.898 228.938L115.556 229.691ZM118.284 222.19H119.284C119.284 218.728 118.326 216.028 116.156 214.401L115.556 215.201L114.956 216.001C116.424 217.101 117.284 219.06 117.284 222.19H118.284ZM115.556 215.201L116.211 214.445C114.306 212.794 111.705 211.835 108.507 211.479L108.397 212.473L108.286 213.467C111.226 213.794 113.397 214.653 114.901 215.956L115.556 215.201ZM108.397 212.473L108.511 211.48C105.497 211.132 101.018 210.962 95.1 210.962V211.962V212.962C101.001 212.962 105.386 213.132 108.282 213.467L108.397 212.473ZM95.1 211.962V210.962H94.9295V211.962V212.962H95.1V211.962ZM94.9295 211.962V210.962H46.175V211.962V212.962H94.9295V211.962ZM46.175 211.962H45.175V232.759H46.175H47.175V211.962H46.175ZM46.175 232.759V233.759C61.0631 233.759 71.453 233.816 77.3518 233.929L77.3711 232.93L77.3903 231.93C71.4699 231.816 61.0624 231.759 46.175 231.759V232.759ZM77.3711 232.93V233.93C77.3828 233.93 77.3946 233.93 77.4063 233.93C77.4181 233.93 77.4298 233.93 77.4416 233.93C77.4533 233.93 77.465 233.93 77.4767 233.93C77.4885 233.93 77.5002 233.93 77.5119 233.93C77.5236 233.93 77.5353 233.93 77.547 233.93C77.5587 233.93 77.5704 233.93 77.582 233.93C77.5937 233.93 77.6054 233.93 77.617 233.93C77.6287 233.93 77.6403 233.93 77.652 233.93C77.6636 233.93 77.6753 233.93 77.6869 233.93C77.6985 233.93 77.7102 233.93 77.7218 233.93C77.7334 233.93 77.745 233.93 77.7566 233.93C77.7682 233.93 77.7798 233.93 77.7914 233.93C77.803 233.93 77.8146 233.93 77.8261 233.93C77.8377 233.93 77.8493 233.93 77.8608 233.93C77.8724 233.93 77.8839 233.93 77.8955 233.93C77.907 233.93 77.9186 233.93 77.9301 233.93C77.9416 233.93 77.9531 233.93 77.9647 233.93C77.9762 233.93 77.9877 233.93 77.9992 233.93C78.0107 233.93 78.0222 233.93 78.0336 233.93C78.0451 233.93 78.0566 233.93 78.0681 233.93C78.0795 233.93 78.091 233.93 78.1025 233.93C78.1139 233.93 78.1254 233.93 78.1368 233.93C78.1482 233.93 78.1597 233.93 78.1711 233.93C78.1825 233.93 78.1939 233.93 78.2054 233.93C78.2168 233.93 78.2282 233.93 78.2396 233.93C78.251 233.93 78.2623 233.93 78.2737 233.93C78.2851 233.93 78.2965 233.93 78.3079 233.93C78.3192 233.93 78.3306 233.93 78.3419 233.93C78.3533 233.93 78.3646 233.93 78.376 233.93C78.3873 233.93 78.3986 233.93 78.4099 233.93C78.4213 233.93 78.4326 233.93 78.4439 233.93C78.4552 233.93 78.4665 233.93 78.4778 233.93C78.4891 233.93 78.5004 233.93 78.5116 233.93C78.5229 233.93 78.5342 233.93 78.5455 233.93C78.5567 233.93 78.568 233.93 78.5792 233.93C78.5905 233.93 78.6017 233.93 78.6129 233.93C78.6242 233.93 78.6354 233.93 78.6466 233.93C78.6578 233.93 78.6691 233.93 78.6803 233.93C78.6915 233.93 78.7027 233.93 78.7139 233.93C78.725 233.93 78.7362 233.93 78.7474 233.93C78.7586 233.93 78.7697 233.93 78.7809 233.93C78.7921 233.93 78.8032 233.93 78.8144 233.93C78.8255 233.93 78.8366 233.93 78.8478 233.93C78.8589 233.93 78.87 233.93 78.8811 233.93C78.8923 233.93 78.9034 233.93 78.9145 233.93C78.9256 233.93 78.9367 233.93 78.9477 233.93C78.9588 233.93 78.9699 233.93 78.981 233.93C78.9921 233.93 79.0031 233.93 79.0142 233.93C79.0252 233.93 79.0363 233.93 79.0473 233.93C79.0584 233.93 79.0694 233.93 79.0804 233.93C79.0915 233.93 79.1025 233.93 79.1135 233.93C79.1245 233.93 79.1355 233.93 79.1465 233.93C79.1575 233.93 79.1685 233.93 79.1795 233.93C79.1905 233.93 79.2014 233.93 79.2124 233.93C79.2234 233.93 79.2343 233.93 79.2453 233.93C79.2562 233.93 79.2672 233.93 79.2781 233.93C79.2891 233.93 79.3 233.93 79.3109 233.93C79.3218 233.93 79.3328 233.93 79.3437 233.93C79.3546 233.93 79.3655 233.93 79.3764 233.93C79.3873 233.93 79.3982 233.93 79.409 233.93C79.4199 233.93 79.4308 233.93 79.4416 233.93C79.4525 233.93 79.4634 233.93 79.4742 233.93C79.4851 233.93 79.4959 233.93 79.5068 233.93C79.5176 233.93 79.5284 233.93 79.5392 233.93C79.5501 233.93 79.5609 233.93 79.5717 233.93C79.5825 233.93 79.5933 233.93 79.6041 233.93C79.6149 233.93 79.6256 233.93 79.6364 233.93C79.6472 233.93 79.658 233.93 79.6687 233.93C79.6795 233.93 79.6902 233.93 79.701 233.93C79.7117 233.93 79.7225 233.93 79.7332 233.93C79.7439 233.93 79.7547 233.93 79.7654 233.93C79.7761 233.93 79.7868 233.93 79.7975 233.93C79.8082 233.93 79.8189 233.93 79.8296 233.93C79.8403 233.93 79.851 233.93 79.8616 233.93C79.8723 233.93 79.883 233.93 79.8936 233.93C79.9043 233.93 79.915 233.93 79.9256 233.93C79.9362 233.93 79.9469 233.93 79.9575 233.93C79.9681 233.93 79.9788 233.93 79.9894 233.93C80 233.93 80.0106 233.93 80.0212 233.93C80.0318 233.93 80.0424 233.93 80.053 233.93C80.0636 233.93 80.0741 233.93 80.0847 233.93C80.0953 233.93 80.1058 233.93 80.1164 233.93C80.127 233.93 80.1375 233.93 80.148 233.93C80.1586 233.93 80.1691 233.93 80.1796 233.93C80.1902 233.93 80.2007 233.93 80.2112 233.93C80.2217 233.93 80.2322 233.93 80.2427 233.93C80.2532 233.93 80.2637 233.93 80.2742 233.93C80.2847 233.93 80.2951 233.93 80.3056 233.93C80.3161 233.93 80.3265 233.93 80.337 233.93C80.3474 233.93 80.3579 233.93 80.3683 233.93C80.3788 233.93 80.3892 233.93 80.3996 233.93C80.41 233.93 80.4204 233.93 80.4309 233.93C80.4413 233.93 80.4517 233.93 80.4621 233.93C80.4724 233.93 80.4828 233.93 80.4932 233.93C80.5036 233.93 80.514 233.93 80.5243 233.93C80.5347 233.93 80.545 233.93 80.5554 233.93C80.5657 233.93 80.5761 233.93 80.5864 233.93C80.5968 233.93 80.6071 233.93 80.6174 233.93C80.6277 233.93 80.638 233.93 80.6483 233.93C80.6586 233.93 80.6689 233.93 80.6792 233.93C80.6895 233.93 80.6998 233.93 80.7101 233.93C80.7204 233.93 80.7306 233.93 80.7409 233.93C80.7511 233.93 80.7614 233.93 80.7716 233.93C80.7819 233.93 80.7921 233.93 80.8024 233.93C80.8126 233.93 80.8228 233.93 80.833 233.93C80.8433 233.93 80.8535 233.93 80.8637 233.93C80.8739 233.93 80.8841 233.93 80.8942 233.93C80.9044 233.93 80.9146 233.93 80.9248 233.93C80.935 233.93 80.9451 233.93 80.9553 233.93C80.9654 233.93 80.9756 233.93 80.9857 233.93C80.9959 233.93 81.006 233.93 81.0161 233.93C81.0263 233.93 81.0364 233.93 81.0465 233.93C81.0566 233.93 81.0667 233.93 81.0768 233.93C81.0869 233.93 81.097 233.93 81.1071 233.93C81.1172 233.93 81.1272 233.93 81.1373 233.93C81.1474 233.93 81.1574 233.93 81.1675 233.93C81.1776 233.93 81.1876 233.93 81.1976 233.93C81.2077 233.93 81.2177 233.93 81.2277 233.93C81.2378 233.93 81.2478 233.93 81.2578 233.93C81.2678 233.93 81.2778 233.93 81.2878 233.93C81.2978 233.93 81.3078 233.93 81.3178 233.93C81.3277 233.93 81.3377 233.93 81.3477 233.93C81.3577 233.93 81.3676 233.93 81.3776 233.93C81.3875 233.93 81.3975 233.93 81.4074 233.93C81.4173 233.93 81.4273 233.93 81.4372 233.93C81.4471 233.93 81.457 233.93 81.4669 233.93C81.4768 233.93 81.4867 233.93 81.4966 233.93C81.5065 233.93 81.5164 233.93 81.5263 233.93C81.5362 233.93 81.546 233.93 81.5559 233.93C81.5658 233.93 81.5756 233.93 81.5855 233.93C81.5953 233.93 81.6051 233.93 81.615 233.93C81.6248 233.93 81.6346 233.93 81.6445 233.93C81.6543 233.93 81.6641 233.93 81.6739 233.93C81.6837 233.93 81.6935 233.93 81.7033 233.93C81.7131 233.93 81.7228 233.93 81.7326 233.93C81.7424 233.93 81.7522 233.93 81.7619 233.93C81.7717 233.93 81.7814 233.93 81.7912 233.93C81.8009 233.93 81.8107 233.93 81.8204 233.93C81.8301 233.93 81.8398 233.93 81.8496 233.93C81.8593 233.93 81.869 233.93 81.8787 233.93C81.8884 233.93 81.8981 233.93 81.9078 233.93C81.9174 233.93 81.9271 233.93 81.9368 233.93C81.9465 233.93 81.9561 233.93 81.9658 233.93C81.9754 233.93 81.9851 233.93 81.9947 233.93C82.0044 233.93 82.014 233.93 82.0236 233.93C82.0333 233.93 82.0429 233.93 82.0525 233.93C82.0621 233.93 82.0717 233.93 82.0813 233.93C82.0909 233.93 82.1005 233.93 82.1101 233.93C82.1197 233.93 82.1292 233.93 82.1388 233.93C82.1484 233.93 82.1579 233.93 82.1675 233.93C82.177 233.93 82.1866 233.93 82.1961 233.93C82.2057 233.93 82.2152 233.93 82.2247 233.93C82.2342 233.93 82.2438 233.93 82.2533 233.93C82.2628 233.93 82.2723 233.93 82.2818 233.93C82.2913 233.93 82.3008 233.93 82.3102 233.93C82.3197 233.93 82.3292 233.93 82.3387 233.93C82.3481 233.93 82.3576 233.93 82.367 233.93C82.3765 233.93 82.3859 233.93 82.3954 233.93C82.4048 233.93 82.4142 233.93 82.4236 233.93C82.4331 233.93 82.4425 233.93 82.4519 233.93C82.4613 233.93 82.4707 233.93 82.4801 233.93C82.4895 233.93 82.4988 233.93 82.5082 233.93C82.5176 233.93 82.527 233.93 82.5363 233.93C82.5457 233.93 82.555 233.93 82.5644 233.93C82.5737 233.93 82.5831 233.93 82.5924 233.93C82.6017 233.93 82.6111 233.93 82.6204 233.93C82.6297 233.93 82.639 233.93 82.6483 233.93C82.6576 233.93 82.6669 233.93 82.6762 233.93C82.6855 233.93 82.6948 233.93 82.704 233.93C82.7133 233.93 82.7226 233.93 82.7318 233.93C82.7411 233.93 82.7503 233.93 82.7596 233.93C82.7688 233.93 82.7781 233.93 82.7873 233.93C82.7965 233.93 82.8058 233.93 82.815 233.93C82.8242 233.93 82.8334 233.93 82.8426 233.93C82.8518 233.93 82.861 233.93 82.8702 233.93C82.8793 233.93 82.8885 233.93 82.8977 233.93C82.9069 233.93 82.916 233.93 82.9252 233.93C82.9343 233.93 82.9435 233.93 82.9526 233.93C82.9618 233.93 82.9709 233.93 82.98 233.93C82.9892 233.93 82.9983 233.93 83.0074 233.93C83.0165 233.93 83.0256 233.93 83.0347 233.93C83.0438 233.93 83.0529 233.93 83.062 233.93C83.071 233.93 83.0801 233.93 83.0892 233.93C83.0982 233.93 83.1073 233.93 83.1164 233.93C83.1254 233.93 83.1345 233.93 83.1435 233.93C83.1525 233.93 83.1616 233.93 83.1706 233.93C83.1796 233.93 83.1886 233.93 83.1976 233.93C83.2066 233.93 83.2156 233.93 83.2246 233.93C83.2336 233.93 83.2426 233.93 83.2516 233.93C83.2606 233.93 83.2695 233.93 83.2785 233.93C83.2875 233.93 83.2964 233.93 83.3054 233.93C83.3143 233.93 83.3233 233.93 83.3322 233.93C83.3411 233.93 83.3501 233.93 83.359 233.93C83.3679 233.93 83.3768 233.93 83.3857 233.93C83.3946 233.93 83.4035 233.93 83.4124 233.93C83.4213 233.93 83.4302 233.93 83.4391 233.93C83.4479 233.93 83.4568 233.93 83.4657 233.93C83.4745 233.93 83.4834 233.93 83.4922 233.93C83.5011 233.93 83.5099 233.93 83.5187 233.93C83.5276 233.93 83.5364 233.93 83.5452 233.93C83.554 233.93 83.5628 233.93 83.5716 233.93C83.5804 233.93 83.5892 233.93 83.598 233.93C83.6068 233.93 83.6156 233.93 83.6243 233.93C83.6331 233.93 83.6419 233.93 83.6506 233.93C83.6594 233.93 83.6681 233.93 83.6769 233.93C83.6856 233.93 83.6944 233.93 83.7031 233.93C83.7118 233.93 83.7205 233.93 83.7293 233.93C83.738 233.93 83.7467 233.93 83.7554 233.93C83.7641 233.93 83.7728 233.93 83.7814 233.93C83.7901 233.93 83.7988 233.93 83.8075 233.93C83.8161 233.93 83.8248 233.93 83.8335 233.93C83.8421 233.93 83.8508 233.93 83.8594 233.93C83.868 233.93 83.8767 233.93 83.8853 233.93C83.8939 233.93 83.9025 233.93 83.9111 233.93C83.9198 233.93 83.9284 233.93 83.937 233.93C83.9456 233.93 83.9541 233.93 83.9627 233.93C83.9713 233.93 83.9799 233.93 83.9884 233.93C83.997 233.93 84.0056 233.93 84.0141 233.93C84.0227 233.93 84.0312 233.93 84.0397 233.93C84.0483 233.93 84.0568 233.93 84.0653 233.93C84.0739 233.93 84.0824 233.93 84.0909 233.93C84.0994 233.93 84.1079 233.93 84.1164 233.93C84.1249 233.93 84.1333 233.93 84.1418 233.93C84.1503 233.93 84.1588 233.93 84.1672 233.93C84.1757 233.93 84.1841 233.93 84.1926 233.93C84.201 233.93 84.2095 233.93 84.2179 233.93C84.2264 233.93 84.2348 233.93 84.2432 233.93C84.2516 233.93 84.26 233.93 84.2684 233.93C84.2768 233.93 84.2852 233.93 84.2936 233.93C84.302 233.93 84.3104 233.93 84.3188 233.93C84.3271 233.93 84.3355 233.93 84.3439 233.93C84.3522 233.93 84.3606 233.93 84.3689 233.93C84.3773 233.93 84.3856 233.93 84.3939 233.93C84.4023 233.93 84.4106 233.93 84.4189 233.93C84.4272 233.93 84.4355 233.93 84.4438 233.93C84.4521 233.93 84.4604 233.93 84.4687 233.93C84.477 233.93 84.4853 233.93 84.4935 233.93C84.5018 233.93 84.5101 233.93 84.5183 233.93C84.5266 233.93 84.5348 233.93 84.5431 233.93C84.5513 233.93 84.5595 233.93 84.5678 233.93C84.576 233.93 84.5842 233.93 84.5924 233.93C84.6006 233.93 84.6088 233.93 84.617 233.93C84.6252 233.93 84.6334 233.93 84.6416 233.93C84.6498 233.93 84.658 233.93 84.6661 233.93C84.6743 233.93 84.6825 233.93 84.6906 233.93C84.6988 233.93 84.7069 233.93 84.7151 233.93C84.7232 233.93 84.7313 233.93 84.7394 233.93C84.7476 233.93 84.7557 233.93 84.7638 233.93C84.7719 233.93 84.78 233.93 84.7881 233.93C84.7962 233.93 84.8043 233.93 84.8124 233.93C84.8204 233.93 84.8285 233.93 84.8366 233.93C84.8446 233.93 84.8527 233.93 84.8607 233.93C84.8688 233.93 84.8768 233.93 84.8849 233.93C84.8929 233.93 84.9009 233.93 84.909 233.93C84.917 233.93 84.925 233.93 84.933 233.93C84.941 233.93 84.949 233.93 84.957 233.93C84.965 233.93 84.973 233.93 84.9809 233.93C84.9889 233.93 84.9969 233.93 85.0048 233.93C85.0128 233.93 85.0208 233.93 85.0287 233.93C85.0367 233.93 85.0446 233.93 85.0525 233.93C85.0605 233.93 85.0684 233.93 85.0763 233.93C85.0842 233.93 85.0921 233.93 85.1 233.93C85.1079 233.93 85.1158 233.93 85.1237 233.93C85.1316 233.93 85.1395 233.93 85.1474 233.93C85.1552 233.93 85.1631 233.93 85.1709 233.93C85.1788 233.93 85.1867 233.93 85.1945 233.93C85.2023 233.93 85.2102 233.93 85.218 233.93C85.2258 233.93 85.2337 233.93 85.2415 233.93C85.2493 233.93 85.2571 233.93 85.2649 233.93C85.2727 233.93 85.2805 233.93 85.2883 233.93C85.2961 233.93 85.3038 233.93 85.3116 233.93C85.3194 233.93 85.3271 233.93 85.3349 233.93C85.3426 233.93 85.3504 233.93 85.3581 233.93C85.3659 233.93 85.3736 233.93 85.3813 233.93C85.3891 233.93 85.3968 233.93 85.4045 233.93C85.4122 233.93 85.4199 233.93 85.4276 233.93C85.4353 233.93 85.443 233.93 85.4507 233.93C85.4583 233.93 85.466 233.93 85.4737 233.93C85.4813 233.93 85.489 233.93 85.4967 233.93C85.5043 233.93 85.512 233.93 85.5196 233.93C85.5272 233.93 85.5349 233.93 85.5425 233.93C85.5501 233.93 85.5577 233.93 85.5653 233.93C85.5729 233.93 85.5805 233.93 85.5881 233.93C85.5957 233.93 85.6033 233.93 85.6109 233.93C85.6185 233.93 85.626 233.93 85.6336 233.93C85.6412 233.93 85.6487 233.93 85.6563 233.93C85.6638 233.93 85.6714 233.93 85.6789 233.93C85.6864 233.93 85.6939 233.93 85.7015 233.93C85.709 233.93 85.7165 233.93 85.724 233.93C85.7315 233.93 85.739 233.93 85.7465 233.93C85.754 233.93 85.7615 233.93 85.7689 233.93C85.7764 233.93 85.7839 233.93 85.7913 233.93C85.7988 233.93 85.8063 233.93 85.8137 233.93C85.8211 233.93 85.8286 233.93 85.836 233.93C85.8434 233.93 85.8509 233.93 85.8583 233.93C85.8657 233.93 85.8731 233.93 85.8805 233.93C85.8879 233.93 85.8953 233.93 85.9027 233.93C85.9101 233.93 85.9175 233.93 85.9248 233.93C85.9322 233.93 85.9396 233.93 85.9469 233.93C85.9543 233.93 85.9616 233.93 85.969 233.93C85.9763 233.93 85.9836 233.93 85.991 233.93C85.9983 233.93 86.0056 233.93 86.0129 233.93C86.0202 233.93 86.0276 233.93 86.0348 233.93C86.0421 233.93 86.0494 233.93 86.0567 233.93C86.064 233.93 86.0713 233.93 86.0785 233.93C86.0858 233.93 86.0931 233.93 86.1003 233.93C86.1076 233.93 86.1148 233.93 86.1221 233.93C86.1293 233.93 86.1365 233.93 86.1438 233.93C86.151 233.93 86.1582 233.93 86.1654 233.93C86.1726 233.93 86.1798 233.93 86.187 233.93C86.1942 233.93 86.2014 233.93 86.2086 233.93C86.2158 233.93 86.2229 233.93 86.2301 233.93C86.2373 233.93 86.2444 233.93 86.2516 233.93C86.2587 233.93 86.2659 233.93 86.273 233.93C86.2801 233.93 86.2873 233.93 86.2944 233.93C86.3015 233.93 86.3086 233.93 86.3157 233.93C86.3228 233.93 86.3299 233.93 86.337 233.93C86.3441 233.93 86.3512 233.93 86.3583 233.93C86.3654 233.93 86.3724 233.93 86.3795 233.93C86.3866 233.93 86.3936 233.93 86.4007 233.93C86.4077 233.93 86.4147 233.93 86.4218 233.93C86.4288 233.93 86.4358 233.93 86.4429 233.93C86.4499 233.93 86.4569 233.93 86.4639 233.93C86.4709 233.93 86.4779 233.93 86.4849 233.93C86.4919 233.93 86.4988 233.93 86.5058 233.93C86.5128 233.93 86.5198 233.93 86.5267 233.93C86.5337 233.93 86.5406 233.93 86.5476 233.93C86.5545 233.93 86.5615 233.93 86.5684 233.93C86.5753 233.93 86.5822 233.93 86.5891 233.93C86.5961 233.93 86.603 233.93 86.6099 233.93C86.6168 233.93 86.6237 233.93 86.6305 233.93C86.6374 233.93 86.6443 233.93 86.6512 233.93C86.6581 233.93 86.6649 233.93 86.6718 233.93C86.6786 233.93 86.6855 233.93 86.6923 233.93C86.6992 233.93 86.706 233.93 86.7128 233.93C86.7196 233.93 86.7265 233.93 86.7333 233.93C86.7401 233.93 86.7469 233.93 86.7537 233.93C86.7605 233.93 86.7673 233.93 86.7741 233.93C86.7808 233.93 86.7876 233.93 86.7944 233.93C86.8011 233.93 86.8079 233.93 86.8147 233.93C86.8214 233.93 86.8282 233.93 86.8349 233.93C86.8416 233.93 86.8484 233.93 86.8551 233.93C86.8618 233.93 86.8685 233.93 86.8752 233.93C86.8819 233.93 86.8886 233.93 86.8953 233.93C86.902 233.93 86.9087 233.93 86.9154 233.93C86.9221 233.93 86.9287 233.93 86.9354 233.93C86.9421 233.93 86.9487 233.93 86.9554 233.93C86.962 233.93 86.9687 233.93 86.9753 233.93C86.9819 233.93 86.9886 233.93 86.9952 233.93C87.0018 233.93 87.0084 233.93 87.015 233.93C87.0216 233.93 87.0282 233.93 87.0348 233.93C87.0414 233.93 87.048 233.93 87.0546 233.93C87.0611 233.93 87.0677 233.93 87.0743 233.93C87.0808 233.93 87.0874 233.93 87.0939 233.93C87.1005 233.93 87.107 233.93 87.1136 233.93C87.1201 233.93 87.1266 233.93 87.1331 233.93C87.1396 233.93 87.1462 233.93 87.1527 233.93C87.1592 233.93 87.1657 233.93 87.1721 233.93C87.1786 233.93 87.1851 233.93 87.1916 233.93C87.198 233.93 87.2045 233.93 87.211 233.93C87.2174 233.93 87.2239 233.93 87.2303 233.93C87.2368 233.93 87.2432 233.93 87.2496 233.93C87.2561 233.93 87.2625 233.93 87.2689 233.93C87.2753 233.93 87.2817 233.93 87.2881 233.93C87.2945 233.93 87.3009 233.93 87.3073 233.93C87.3137 233.93 87.32 233.93 87.3264 233.93C87.3328 233.93 87.3391 233.93 87.3455 233.93C87.3519 233.93 87.3582 233.93 87.3645 233.93C87.3709 233.93 87.3772 233.93 87.3835 233.93C87.3899 233.93 87.3962 233.93 87.4025 233.93C87.4088 233.93 87.4151 233.93 87.4214 233.93C87.4277 233.93 87.434 233.93 87.4403 233.93C87.4466 233.93 87.4528 233.93 87.4591 233.93C87.4654 233.93 87.4716 233.93 87.4779 233.93C87.4841 233.93 87.4904 233.93 87.4966 233.93C87.5028 233.93 87.5091 233.93 87.5153 233.93C87.5215 233.93 87.5277 233.93 87.5339 233.93C87.5401 233.93 87.5463 233.93 87.5525 233.93C87.5587 233.93 87.5649 233.93 87.5711 233.93C87.5773 233.93 87.5834 233.93 87.5896 233.93C87.5958 233.93 87.6019 233.93 87.6081 233.93C87.6142 233.93 87.6204 233.93 87.6265 233.93C87.6326 233.93 87.6387 233.93 87.6449 233.93C87.651 233.93 87.6571 233.93 87.6632 233.93C87.6693 233.93 87.6754 233.93 87.6815 233.93C87.6876 233.93 87.6937 233.93 87.6997 233.93C87.7058 233.93 87.7119 233.93 87.7179 233.93C87.724 233.93 87.7301 233.93 87.7361 233.93C87.7421 233.93 87.7482 233.93 87.7542 233.93C87.7602 233.93 87.7663 233.93 87.7723 233.93C87.7783 233.93 87.7843 233.93 87.7903 233.93C87.7963 233.93 87.8023 233.93 87.8083 233.93C87.8143 233.93 87.8202 233.93 87.8262 233.93C87.8322 233.93 87.8382 233.93 87.8441 233.93C87.8501 233.93 87.856 233.93 87.862 233.93C87.8679 233.93 87.8738 233.93 87.8798 233.93C87.8857 233.93 87.8916 233.93 87.8975 233.93C87.9034 233.93 87.9093 233.93 87.9152 233.93C87.9211 233.93 87.927 233.93 87.9329 233.93C87.9388 233.93 87.9447 233.93 87.9505 233.93C87.9564 233.93 87.9623 233.93 87.9681 233.93C87.974 233.93 87.9798 233.93 87.9857 233.93C87.9915 233.93 87.9973 233.93 88.0032 233.93C88.009 233.93 88.0148 233.93 88.0206 233.93C88.0264 233.93 88.0322 233.93 88.038 233.93C88.0438 233.93 88.0496 233.93 88.0554 233.93C88.0611 233.93 88.0669 233.93 88.0727 233.93C88.0785 233.93 88.0842 233.93 88.09 233.93C88.0957 233.93 88.1015 233.93 88.1072 233.93C88.1129 233.93 88.1187 233.93 88.1244 233.93C88.1301 233.93 88.1358 233.93 88.1415 233.93C88.1472 233.93 88.1529 233.93 88.1586 233.93C88.1643 233.93 88.17 233.93 88.1757 233.93C88.1813 233.93 88.187 233.93 88.1927 233.93C88.1983 233.93 88.204 233.93 88.2096 233.93C88.2153 233.93 88.2209 233.93 88.2266 233.93C88.2322 233.93 88.2378 233.93 88.2434 233.93C88.249 233.93 88.2547 233.93 88.2603 233.93C88.2659 233.93 88.2715 233.93 88.277 233.93C88.2826 233.93 88.2882 233.93 88.2938 233.93C88.2994 233.93 88.3049 233.93 88.3105 233.93C88.316 233.93 88.3216 233.93 88.3271 233.93C88.3327 233.93 88.3382 233.93 88.3437 233.93C88.3493 233.93 88.3548 233.93 88.3603 233.93C88.3658 233.93 88.3713 233.93 88.3768 233.93C88.3823 233.93 88.3878 233.93 88.3933 233.93C88.3988 233.93 88.4043 233.93 88.4097 233.93C88.4152 233.93 88.4207 233.93 88.4261 233.93C88.4316 233.93 88.437 233.93 88.4425 233.93C88.4479 233.93 88.4534 233.93 88.4588 233.93C88.4642 233.93 88.4696 233.93 88.475 233.93C88.4804 233.93 88.4859 233.93 88.4912 233.93C88.4966 233.93 88.502 233.93 88.5074 233.93C88.5128 233.93 88.5182 233.93 88.5235 233.93C88.5289 233.93 88.5343 233.93 88.5396 233.93C88.545 233.93 88.5503 233.93 88.5557 233.93C88.561 233.93 88.5663 233.93 88.5716 233.93C88.577 233.93 88.5823 233.93 88.5876 233.93C88.5929 233.93 88.5982 233.93 88.6035 233.93C88.6088 233.93 88.6141 233.93 88.6193 233.93C88.6246 233.93 88.6299 233.93 88.6352 233.93C88.6404 233.93 88.6457 233.93 88.6509 233.93C88.6562 233.93 88.6614 233.93 88.6667 233.93C88.6719 233.93 88.6771 233.93 88.6823 233.93C88.6876 233.93 88.6928 233.93 88.698 233.93C88.7032 233.93 88.7084 233.93 88.7136 233.93C88.7188 233.93 88.7239 233.93 88.7291 233.93C88.7343 233.93 88.7395 233.93 88.7446 233.93C88.7498 233.93 88.7549 233.93 88.7601 233.93C88.7652 233.93 88.7704 233.93 88.7755 233.93C88.7806 233.93 88.7858 233.93 88.7909 233.93C88.796 233.93 88.8011 233.93 88.8062 233.93C88.8113 233.93 88.8164 233.93 88.8215 233.93C88.8266 233.93 88.8316 233.93 88.8367 233.93C88.8418 233.93 88.8469 233.93 88.8519 233.93C88.857 233.93 88.862 233.93 88.8671 233.93C88.8721 233.93 88.8771 233.93 88.8822 233.93C88.8872 233.93 88.8922 233.93 88.8972 233.93C88.9022 233.93 88.9073 233.93 88.9122 233.93C88.9172 233.93 88.9222 233.93 88.9272 233.93C88.9322 233.93 88.9372 233.93 88.9422 233.93C88.9471 233.93 88.9521 233.93 88.957 233.93C88.962 233.93 88.9669 233.93 88.9719 233.93C88.9768 233.93 88.9818 233.93 88.9867 233.93C88.9916 233.93 88.9965 233.93 89.0014 233.93C89.0063 233.93 89.0112 233.93 89.0161 233.93C89.021 233.93 89.0259 233.93 89.0308 233.93C89.0357 233.93 89.0406 233.93 89.0454 233.93C89.0503 233.93 89.0551 233.93 89.06 233.93C89.0648 233.93 89.0697 233.93 89.0745 233.93C89.0794 233.93 89.0842 233.93 89.089 233.93C89.0938 233.93 89.0987 233.93 89.1035 233.93C89.1083 233.93 89.1131 233.93 89.1179 233.93C89.1226 233.93 89.1274 233.93 89.1322 233.93C89.137 233.93 89.1418 233.93 89.1465 233.93C89.1513 233.93 89.156 233.93 89.1608 233.93C89.1655 233.93 89.1703 233.93 89.175 233.93C89.1797 233.93 89.1845 233.93 89.1892 233.93C89.1939 233.93 89.1986 233.93 89.2033 233.93C89.208 233.93 89.2127 233.93 89.2174 233.93C89.2221 233.93 89.2268 233.93 89.2315 233.93C89.2361 233.93 89.2408 233.93 89.2455 233.93C89.2501 233.93 89.2548 233.93 89.2594 233.93C89.2641 233.93 89.2687 233.93 89.2733 233.93C89.278 233.93 89.2826 233.93 89.2872 233.93C89.2918 233.93 89.2964 233.93 89.301 233.93C89.3056 233.93 89.3102 233.93 89.3148 233.93C89.3194 233.93 89.324 233.93 89.3285 233.93C89.3331 233.93 89.3377 233.93 89.3422 233.93C89.3468 233.93 89.3513 233.93 89.3559 233.93C89.3604 233.93 89.3649 233.93 89.3695 233.93C89.374 233.93 89.3785 233.93 89.383 233.93C89.3875 233.93 89.392 233.93 89.3965 233.93C89.401 233.93 89.4055 233.93 89.41 233.93C89.4145 233.93 89.419 233.93 89.4234 233.93C89.4279 233.93 89.4324 233.93 89.4368 233.93C89.4413 233.93 89.4457 233.93 89.4502 233.93C89.4546 233.93 89.459 233.93 89.4635 233.93C89.4679 233.93 89.4723 233.93 89.4767 233.93C89.4811 233.93 89.4855 233.93 89.4899 233.93C89.4943 233.93 89.4987 233.93 89.5031 233.93C89.5074 233.93 89.5118 233.93 89.5162 233.93C89.5205 233.93 89.5249 233.93 89.5293 233.93C89.5336 233.93 89.5379 233.93 89.5423 233.93C89.5466 233.93 89.5509 233.93 89.5553 233.93C89.5596 233.93 89.5639 233.93 89.5682 233.93C89.5725 233.93 89.5768 233.93 89.5811 233.93C89.5854 233.93 89.5897 233.93 89.594 233.93C89.5982 233.93 89.6025 233.93 89.6068 233.93C89.611 233.93 89.6153 233.93 89.6195 233.93C89.6238 233.93 89.628 233.93 89.6322 233.93C89.6365 233.93 89.6407 233.93 89.6449 233.93V232.93V231.93C89.6407 231.93 89.6365 231.93 89.6322 231.93C89.628 231.93 89.6238 231.93 89.6195 231.93C89.6153 231.93 89.611 231.93 89.6068 231.93C89.6025 231.93 89.5982 231.93 89.594 231.93C89.5897 231.93 89.5854 231.93 89.5811 231.93C89.5768 231.93 89.5725 231.93 89.5682 231.93C89.5639 231.93 89.5596 231.93 89.5553 231.93C89.5509 231.93 89.5466 231.93 89.5423 231.93C89.5379 231.93 89.5336 231.93 89.5293 231.93C89.5249 231.93 89.5205 231.93 89.5162 231.93C89.5118 231.93 89.5074 231.93 89.5031 231.93C89.4987 231.93 89.4943 231.93 89.4899 231.93C89.4855 231.93 89.4811 231.93 89.4767 231.93C89.4723 231.93 89.4679 231.93 89.4635 231.93C89.459 231.93 89.4546 231.93 89.4502 231.93C89.4457 231.93 89.4413 231.93 89.4368 231.93C89.4324 231.93 89.4279 231.93 89.4234 231.93C89.419 231.93 89.4145 231.93 89.41 231.93C89.4055 231.93 89.401 231.93 89.3965 231.93C89.392 231.93 89.3875 231.93 89.383 231.93C89.3785 231.93 89.374 231.93 89.3695 231.93C89.3649 231.93 89.3604 231.93 89.3559 231.93C89.3513 231.93 89.3468 231.93 89.3422 231.93C89.3377 231.93 89.3331 231.93 89.3285 231.93C89.324 231.93 89.3194 231.93 89.3148 231.93C89.3102 231.93 89.3056 231.93 89.301 231.93C89.2964 231.93 89.2918 231.93 89.2872 231.93C89.2826 231.93 89.278 231.93 89.2733 231.93C89.2687 231.93 89.2641 231.93 89.2594 231.93C89.2548 231.93 89.2501 231.93 89.2455 231.93C89.2408 231.93 89.2361 231.93 89.2315 231.93C89.2268 231.93 89.2221 231.93 89.2174 231.93C89.2127 231.93 89.208 231.93 89.2033 231.93C89.1986 231.93 89.1939 231.93 89.1892 231.93C89.1845 231.93 89.1797 231.93 89.175 231.93C89.1703 231.93 89.1655 231.93 89.1608 231.93C89.156 231.93 89.1513 231.93 89.1465 231.93C89.1418 231.93 89.137 231.93 89.1322 231.93C89.1274 231.93 89.1226 231.93 89.1179 231.93C89.1131 231.93 89.1083 231.93 89.1035 231.93C89.0987 231.93 89.0938 231.93 89.089 231.93C89.0842 231.93 89.0794 231.93 89.0745 231.93C89.0697 231.93 89.0648 231.93 89.06 231.93C89.0551 231.93 89.0503 231.93 89.0454 231.93C89.0406 231.93 89.0357 231.93 89.0308 231.93C89.0259 231.93 89.021 231.93 89.0161 231.93C89.0112 231.93 89.0063 231.93 89.0014 231.93C88.9965 231.93 88.9916 231.93 88.9867 231.93C88.9818 231.93 88.9768 231.93 88.9719 231.93C88.9669 231.93 88.962 231.93 88.957 231.93C88.9521 231.93 88.9471 231.93 88.9422 231.93C88.9372 231.93 88.9322 231.93 88.9272 231.93C88.9222 231.93 88.9172 231.93 88.9122 231.93C88.9073 231.93 88.9022 231.93 88.8972 231.93C88.8922 231.93 88.8872 231.93 88.8822 231.93C88.8771 231.93 88.8721 231.93 88.8671 231.93C88.862 231.93 88.857 231.93 88.8519 231.93C88.8469 231.93 88.8418 231.93 88.8367 231.93C88.8316 231.93 88.8266 231.93 88.8215 231.93C88.8164 231.93 88.8113 231.93 88.8062 231.93C88.8011 231.93 88.796 231.93 88.7909 231.93C88.7858 231.93 88.7806 231.93 88.7755 231.93C88.7704 231.93 88.7652 231.93 88.7601 231.93C88.7549 231.93 88.7498 231.93 88.7446 231.93C88.7395 231.93 88.7343 231.93 88.7291 231.93C88.7239 231.93 88.7188 231.93 88.7136 231.93C88.7084 231.93 88.7032 231.93 88.698 231.93C88.6928 231.93 88.6876 231.93 88.6823 231.93C88.6771 231.93 88.6719 231.93 88.6667 231.93C88.6614 231.93 88.6562 231.93 88.6509 231.93C88.6457 231.93 88.6404 231.93 88.6352 231.93C88.6299 231.93 88.6246 231.93 88.6193 231.93C88.6141 231.93 88.6088 231.93 88.6035 231.93C88.5982 231.93 88.5929 231.93 88.5876 231.93C88.5823 231.93 88.577 231.93 88.5716 231.93C88.5663 231.93 88.561 231.93 88.5557 231.93C88.5503 231.93 88.545 231.93 88.5396 231.93C88.5343 231.93 88.5289 231.93 88.5235 231.93C88.5182 231.93 88.5128 231.93 88.5074 231.93C88.502 231.93 88.4966 231.93 88.4912 231.93C88.4859 231.93 88.4804 231.93 88.475 231.93C88.4696 231.93 88.4642 231.93 88.4588 231.93C88.4534 231.93 88.4479 231.93 88.4425 231.93C88.437 231.93 88.4316 231.93 88.4261 231.93C88.4207 231.93 88.4152 231.93 88.4097 231.93C88.4043 231.93 88.3988 231.93 88.3933 231.93C88.3878 231.93 88.3823 231.93 88.3768 231.93C88.3713 231.93 88.3658 231.93 88.3603 231.93C88.3548 231.93 88.3493 231.93 88.3437 231.93C88.3382 231.93 88.3327 231.93 88.3271 231.93C88.3216 231.93 88.316 231.93 88.3105 231.93C88.3049 231.93 88.2994 231.93 88.2938 231.93C88.2882 231.93 88.2826 231.93 88.277 231.93C88.2715 231.93 88.2659 231.93 88.2603 231.93C88.2547 231.93 88.249 231.93 88.2434 231.93C88.2378 231.93 88.2322 231.93 88.2266 231.93C88.2209 231.93 88.2153 231.93 88.2096 231.93C88.204 231.93 88.1983 231.93 88.1927 231.93C88.187 231.93 88.1813 231.93 88.1757 231.93C88.17 231.93 88.1643 231.93 88.1586 231.93C88.1529 231.93 88.1472 231.93 88.1415 231.93C88.1358 231.93 88.1301 231.93 88.1244 231.93C88.1187 231.93 88.1129 231.93 88.1072 231.93C88.1015 231.93 88.0957 231.93 88.09 231.93C88.0842 231.93 88.0785 231.93 88.0727 231.93C88.0669 231.93 88.0611 231.93 88.0554 231.93C88.0496 231.93 88.0438 231.93 88.038 231.93C88.0322 231.93 88.0264 231.93 88.0206 231.93C88.0148 231.93 88.009 231.93 88.0032 231.93C87.9973 231.93 87.9915 231.93 87.9857 231.93C87.9798 231.93 87.974 231.93 87.9681 231.93C87.9623 231.93 87.9564 231.93 87.9505 231.93C87.9447 231.93 87.9388 231.93 87.9329 231.93C87.927 231.93 87.9211 231.93 87.9152 231.93C87.9093 231.93 87.9034 231.93 87.8975 231.93C87.8916 231.93 87.8857 231.93 87.8798 231.93C87.8738 231.93 87.8679 231.93 87.862 231.93C87.856 231.93 87.8501 231.93 87.8441 231.93C87.8382 231.93 87.8322 231.93 87.8262 231.93C87.8202 231.93 87.8143 231.93 87.8083 231.93C87.8023 231.93 87.7963 231.93 87.7903 231.93C87.7843 231.93 87.7783 231.93 87.7723 231.93C87.7663 231.93 87.7602 231.93 87.7542 231.93C87.7482 231.93 87.7421 231.93 87.7361 231.93C87.7301 231.93 87.724 231.93 87.7179 231.93C87.7119 231.93 87.7058 231.93 87.6997 231.93C87.6937 231.93 87.6876 231.93 87.6815 231.93C87.6754 231.93 87.6693 231.93 87.6632 231.93C87.6571 231.93 87.651 231.93 87.6449 231.93C87.6387 231.93 87.6326 231.93 87.6265 231.93C87.6204 231.93 87.6142 231.93 87.6081 231.93C87.6019 231.93 87.5958 231.93 87.5896 231.93C87.5834 231.93 87.5773 231.93 87.5711 231.93C87.5649 231.93 87.5587 231.93 87.5525 231.93C87.5463 231.93 87.5401 231.93 87.5339 231.93C87.5277 231.93 87.5215 231.93 87.5153 231.93C87.5091 231.93 87.5028 231.93 87.4966 231.93C87.4904 231.93 87.4841 231.93 87.4779 231.93C87.4716 231.93 87.4654 231.93 87.4591 231.93C87.4528 231.93 87.4466 231.93 87.4403 231.93C87.434 231.93 87.4277 231.93 87.4214 231.93C87.4151 231.93 87.4088 231.93 87.4025 231.93C87.3962 231.93 87.3899 231.93 87.3835 231.93C87.3772 231.93 87.3709 231.93 87.3645 231.93C87.3582 231.93 87.3519 231.93 87.3455 231.93C87.3391 231.93 87.3328 231.93 87.3264 231.93C87.32 231.93 87.3137 231.93 87.3073 231.93C87.3009 231.93 87.2945 231.93 87.2881 231.93C87.2817 231.93 87.2753 231.93 87.2689 231.93C87.2625 231.93 87.2561 231.93 87.2496 231.93C87.2432 231.93 87.2368 231.93 87.2303 231.93C87.2239 231.93 87.2174 231.93 87.211 231.93C87.2045 231.93 87.198 231.93 87.1916 231.93C87.1851 231.93 87.1786 231.93 87.1721 231.93C87.1657 231.93 87.1592 231.93 87.1527 231.93C87.1462 231.93 87.1396 231.93 87.1331 231.93C87.1266 231.93 87.1201 231.93 87.1136 231.93C87.107 231.93 87.1005 231.93 87.0939 231.93C87.0874 231.93 87.0808 231.93 87.0743 231.93C87.0677 231.93 87.0611 231.93 87.0546 231.93C87.048 231.93 87.0414 231.93 87.0348 231.93C87.0282 231.93 87.0216 231.93 87.015 231.93C87.0084 231.93 87.0018 231.93 86.9952 231.93C86.9886 231.93 86.9819 231.93 86.9753 231.93C86.9687 231.93 86.962 231.93 86.9554 231.93C86.9487 231.93 86.9421 231.93 86.9354 231.93C86.9287 231.93 86.9221 231.93 86.9154 231.93C86.9087 231.93 86.902 231.93 86.8953 231.93C86.8886 231.93 86.8819 231.93 86.8752 231.93C86.8685 231.93 86.8618 231.93 86.8551 231.93C86.8484 231.93 86.8416 231.93 86.8349 231.93C86.8282 231.93 86.8214 231.93 86.8147 231.93C86.8079 231.93 86.8011 231.93 86.7944 231.93C86.7876 231.93 86.7808 231.93 86.7741 231.93C86.7673 231.93 86.7605 231.93 86.7537 231.93C86.7469 231.93 86.7401 231.93 86.7333 231.93C86.7265 231.93 86.7196 231.93 86.7128 231.93C86.706 231.93 86.6992 231.93 86.6923 231.93C86.6855 231.93 86.6786 231.93 86.6718 231.93C86.6649 231.93 86.6581 231.93 86.6512 231.93C86.6443 231.93 86.6374 231.93 86.6305 231.93C86.6237 231.93 86.6168 231.93 86.6099 231.93C86.603 231.93 86.5961 231.93 86.5891 231.93C86.5822 231.93 86.5753 231.93 86.5684 231.93C86.5615 231.93 86.5545 231.93 86.5476 231.93C86.5406 231.93 86.5337 231.93 86.5267 231.93C86.5198 231.93 86.5128 231.93 86.5058 231.93C86.4988 231.93 86.4919 231.93 86.4849 231.93C86.4779 231.93 86.4709 231.93 86.4639 231.93C86.4569 231.93 86.4499 231.93 86.4429 231.93C86.4358 231.93 86.4288 231.93 86.4218 231.93C86.4147 231.93 86.4077 231.93 86.4007 231.93C86.3936 231.93 86.3866 231.93 86.3795 231.93C86.3724 231.93 86.3654 231.93 86.3583 231.93C86.3512 231.93 86.3441 231.93 86.337 231.93C86.3299 231.93 86.3228 231.93 86.3157 231.93C86.3086 231.93 86.3015 231.93 86.2944 231.93C86.2873 231.93 86.2801 231.93 86.273 231.93C86.2659 231.93 86.2587 231.93 86.2516 231.93C86.2444 231.93 86.2373 231.93 86.2301 231.93C86.2229 231.93 86.2158 231.93 86.2086 231.93C86.2014 231.93 86.1942 231.93 86.187 231.93C86.1798 231.93 86.1726 231.93 86.1654 231.93C86.1582 231.93 86.151 231.93 86.1438 231.93C86.1365 231.93 86.1293 231.93 86.1221 231.93C86.1148 231.93 86.1076 231.93 86.1003 231.93C86.0931 231.93 86.0858 231.93 86.0785 231.93C86.0713 231.93 86.064 231.93 86.0567 231.93C86.0494 231.93 86.0421 231.93 86.0348 231.93C86.0276 231.93 86.0202 231.93 86.0129 231.93C86.0056 231.93 85.9983 231.93 85.991 231.93C85.9836 231.93 85.9763 231.93 85.969 231.93C85.9616 231.93 85.9543 231.93 85.9469 231.93C85.9396 231.93 85.9322 231.93 85.9248 231.93C85.9175 231.93 85.9101 231.93 85.9027 231.93C85.8953 231.93 85.8879 231.93 85.8805 231.93C85.8731 231.93 85.8657 231.93 85.8583 231.93C85.8509 231.93 85.8434 231.93 85.836 231.93C85.8286 231.93 85.8211 231.93 85.8137 231.93C85.8063 231.93 85.7988 231.93 85.7913 231.93C85.7839 231.93 85.7764 231.93 85.7689 231.93C85.7615 231.93 85.754 231.93 85.7465 231.93C85.739 231.93 85.7315 231.93 85.724 231.93C85.7165 231.93 85.709 231.93 85.7015 231.93C85.6939 231.93 85.6864 231.93 85.6789 231.93C85.6714 231.93 85.6638 231.93 85.6563 231.93C85.6487 231.93 85.6412 231.93 85.6336 231.93C85.626 231.93 85.6185 231.93 85.6109 231.93C85.6033 231.93 85.5957 231.93 85.5881 231.93C85.5805 231.93 85.5729 231.93 85.5653 231.93C85.5577 231.93 85.5501 231.93 85.5425 231.93C85.5349 231.93 85.5272 231.93 85.5196 231.93C85.512 231.93 85.5043 231.93 85.4967 231.93C85.489 231.93 85.4813 231.93 85.4737 231.93C85.466 231.93 85.4583 231.93 85.4507 231.93C85.443 231.93 85.4353 231.93 85.4276 231.93C85.4199 231.93 85.4122 231.93 85.4045 231.93C85.3968 231.93 85.3891 231.93 85.3813 231.93C85.3736 231.93 85.3659 231.93 85.3581 231.93C85.3504 231.93 85.3426 231.93 85.3349 231.93C85.3271 231.93 85.3194 231.93 85.3116 231.93C85.3038 231.93 85.2961 231.93 85.2883 231.93C85.2805 231.93 85.2727 231.93 85.2649 231.93C85.2571 231.93 85.2493 231.93 85.2415 231.93C85.2337 231.93 85.2258 231.93 85.218 231.93C85.2102 231.93 85.2023 231.93 85.1945 231.93C85.1867 231.93 85.1788 231.93 85.1709 231.93C85.1631 231.93 85.1552 231.93 85.1474 231.93C85.1395 231.93 85.1316 231.93 85.1237 231.93C85.1158 231.93 85.1079 231.93 85.1 231.93C85.0921 231.93 85.0842 231.93 85.0763 231.93C85.0684 231.93 85.0605 231.93 85.0525 231.93C85.0446 231.93 85.0367 231.93 85.0287 231.93C85.0208 231.93 85.0128 231.93 85.0048 231.93C84.9969 231.93 84.9889 231.93 84.9809 231.93C84.973 231.93 84.965 231.93 84.957 231.93C84.949 231.93 84.941 231.93 84.933 231.93C84.925 231.93 84.917 231.93 84.909 231.93C84.9009 231.93 84.8929 231.93 84.8849 231.93C84.8768 231.93 84.8688 231.93 84.8607 231.93C84.8527 231.93 84.8446 231.93 84.8366 231.93C84.8285 231.93 84.8204 231.93 84.8124 231.93C84.8043 231.93 84.7962 231.93 84.7881 231.93C84.78 231.93 84.7719 231.93 84.7638 231.93C84.7557 231.93 84.7476 231.93 84.7394 231.93C84.7313 231.93 84.7232 231.93 84.7151 231.93C84.7069 231.93 84.6988 231.93 84.6906 231.93C84.6825 231.93 84.6743 231.93 84.6661 231.93C84.658 231.93 84.6498 231.93 84.6416 231.93C84.6334 231.93 84.6252 231.93 84.617 231.93C84.6088 231.93 84.6006 231.93 84.5924 231.93C84.5842 231.93 84.576 231.93 84.5678 231.93C84.5595 231.93 84.5513 231.93 84.5431 231.93C84.5348 231.93 84.5266 231.93 84.5183 231.93C84.5101 231.93 84.5018 231.93 84.4935 231.93C84.4853 231.93 84.477 231.93 84.4687 231.93C84.4604 231.93 84.4521 231.93 84.4438 231.93C84.4355 231.93 84.4272 231.93 84.4189 231.93C84.4106 231.93 84.4023 231.93 84.3939 231.93C84.3856 231.93 84.3773 231.93 84.3689 231.93C84.3606 231.93 84.3522 231.93 84.3439 231.93C84.3355 231.93 84.3271 231.93 84.3188 231.93C84.3104 231.93 84.302 231.93 84.2936 231.93C84.2852 231.93 84.2768 231.93 84.2684 231.93C84.26 231.93 84.2516 231.93 84.2432 231.93C84.2348 231.93 84.2264 231.93 84.2179 231.93C84.2095 231.93 84.201 231.93 84.1926 231.93C84.1841 231.93 84.1757 231.93 84.1672 231.93C84.1588 231.93 84.1503 231.93 84.1418 231.93C84.1333 231.93 84.1249 231.93 84.1164 231.93C84.1079 231.93 84.0994 231.93 84.0909 231.93C84.0824 231.93 84.0739 231.93 84.0653 231.93C84.0568 231.93 84.0483 231.93 84.0397 231.93C84.0312 231.93 84.0227 231.93 84.0141 231.93C84.0056 231.93 83.997 231.93 83.9884 231.93C83.9799 231.93 83.9713 231.93 83.9627 231.93C83.9541 231.93 83.9456 231.93 83.937 231.93C83.9284 231.93 83.9198 231.93 83.9111 231.93C83.9025 231.93 83.8939 231.93 83.8853 231.93C83.8767 231.93 83.868 231.93 83.8594 231.93C83.8508 231.93 83.8421 231.93 83.8335 231.93C83.8248 231.93 83.8161 231.93 83.8075 231.93C83.7988 231.93 83.7901 231.93 83.7814 231.93C83.7728 231.93 83.7641 231.93 83.7554 231.93C83.7467 231.93 83.738 231.93 83.7293 231.93C83.7205 231.93 83.7118 231.93 83.7031 231.93C83.6944 231.93 83.6856 231.93 83.6769 231.93C83.6681 231.93 83.6594 231.93 83.6506 231.93C83.6419 231.93 83.6331 231.93 83.6243 231.93C83.6156 231.93 83.6068 231.93 83.598 231.93C83.5892 231.93 83.5804 231.93 83.5716 231.93C83.5628 231.93 83.554 231.93 83.5452 231.93C83.5364 231.93 83.5276 231.93 83.5187 231.93C83.5099 231.93 83.5011 231.93 83.4922 231.93C83.4834 231.93 83.4745 231.93 83.4657 231.93C83.4568 231.93 83.4479 231.93 83.4391 231.93C83.4302 231.93 83.4213 231.93 83.4124 231.93C83.4035 231.93 83.3946 231.93 83.3857 231.93C83.3768 231.93 83.3679 231.93 83.359 231.93C83.3501 231.93 83.3411 231.93 83.3322 231.93C83.3233 231.93 83.3143 231.93 83.3054 231.93C83.2964 231.93 83.2875 231.93 83.2785 231.93C83.2695 231.93 83.2606 231.93 83.2516 231.93C83.2426 231.93 83.2336 231.93 83.2246 231.93C83.2156 231.93 83.2066 231.93 83.1976 231.93C83.1886 231.93 83.1796 231.93 83.1706 231.93C83.1616 231.93 83.1525 231.93 83.1435 231.93C83.1345 231.93 83.1254 231.93 83.1164 231.93C83.1073 231.93 83.0982 231.93 83.0892 231.93C83.0801 231.93 83.071 231.93 83.062 231.93C83.0529 231.93 83.0438 231.93 83.0347 231.93C83.0256 231.93 83.0165 231.93 83.0074 231.93C82.9983 231.93 82.9892 231.93 82.98 231.93C82.9709 231.93 82.9618 231.93 82.9526 231.93C82.9435 231.93 82.9343 231.93 82.9252 231.93C82.916 231.93 82.9069 231.93 82.8977 231.93C82.8885 231.93 82.8793 231.93 82.8702 231.93C82.861 231.93 82.8518 231.93 82.8426 231.93C82.8334 231.93 82.8242 231.93 82.815 231.93C82.8058 231.93 82.7965 231.93 82.7873 231.93C82.7781 231.93 82.7688 231.93 82.7596 231.93C82.7503 231.93 82.7411 231.93 82.7318 231.93C82.7226 231.93 82.7133 231.93 82.704 231.93C82.6948 231.93 82.6855 231.93 82.6762 231.93C82.6669 231.93 82.6576 231.93 82.6483 231.93C82.639 231.93 82.6297 231.93 82.6204 231.93C82.6111 231.93 82.6017 231.93 82.5924 231.93C82.5831 231.93 82.5737 231.93 82.5644 231.93C82.555 231.93 82.5457 231.93 82.5363 231.93C82.527 231.93 82.5176 231.93 82.5082 231.93C82.4988 231.93 82.4895 231.93 82.4801 231.93C82.4707 231.93 82.4613 231.93 82.4519 231.93C82.4425 231.93 82.4331 231.93 82.4236 231.93C82.4142 231.93 82.4048 231.93 82.3954 231.93C82.3859 231.93 82.3765 231.93 82.367 231.93C82.3576 231.93 82.3481 231.93 82.3387 231.93C82.3292 231.93 82.3197 231.93 82.3102 231.93C82.3008 231.93 82.2913 231.93 82.2818 231.93C82.2723 231.93 82.2628 231.93 82.2533 231.93C82.2438 231.93 82.2342 231.93 82.2247 231.93C82.2152 231.93 82.2057 231.93 82.1961 231.93C82.1866 231.93 82.177 231.93 82.1675 231.93C82.1579 231.93 82.1484 231.93 82.1388 231.93C82.1292 231.93 82.1197 231.93 82.1101 231.93C82.1005 231.93 82.0909 231.93 82.0813 231.93C82.0717 231.93 82.0621 231.93 82.0525 231.93C82.0429 231.93 82.0333 231.93 82.0236 231.93C82.014 231.93 82.0044 231.93 81.9947 231.93C81.9851 231.93 81.9754 231.93 81.9658 231.93C81.9561 231.93 81.9465 231.93 81.9368 231.93C81.9271 231.93 81.9174 231.93 81.9078 231.93C81.8981 231.93 81.8884 231.93 81.8787 231.93C81.869 231.93 81.8593 231.93 81.8496 231.93C81.8398 231.93 81.8301 231.93 81.8204 231.93C81.8107 231.93 81.8009 231.93 81.7912 231.93C81.7814 231.93 81.7717 231.93 81.7619 231.93C81.7522 231.93 81.7424 231.93 81.7326 231.93C81.7228 231.93 81.7131 231.93 81.7033 231.93C81.6935 231.93 81.6837 231.93 81.6739 231.93C81.6641 231.93 81.6543 231.93 81.6445 231.93C81.6346 231.93 81.6248 231.93 81.615 231.93C81.6051 231.93 81.5953 231.93 81.5855 231.93C81.5756 231.93 81.5658 231.93 81.5559 231.93C81.546 231.93 81.5362 231.93 81.5263 231.93C81.5164 231.93 81.5065 231.93 81.4966 231.93C81.4867 231.93 81.4768 231.93 81.4669 231.93C81.457 231.93 81.4471 231.93 81.4372 231.93C81.4273 231.93 81.4173 231.93 81.4074 231.93C81.3975 231.93 81.3875 231.93 81.3776 231.93C81.3676 231.93 81.3577 231.93 81.3477 231.93C81.3377 231.93 81.3277 231.93 81.3178 231.93C81.3078 231.93 81.2978 231.93 81.2878 231.93C81.2778 231.93 81.2678 231.93 81.2578 231.93C81.2478 231.93 81.2378 231.93 81.2277 231.93C81.2177 231.93 81.2077 231.93 81.1976 231.93C81.1876 231.93 81.1776 231.93 81.1675 231.93C81.1574 231.93 81.1474 231.93 81.1373 231.93C81.1272 231.93 81.1172 231.93 81.1071 231.93C81.097 231.93 81.0869 231.93 81.0768 231.93C81.0667 231.93 81.0566 231.93 81.0465 231.93C81.0364 231.93 81.0263 231.93 81.0161 231.93C81.006 231.93 80.9959 231.93 80.9857 231.93C80.9756 231.93 80.9654 231.93 80.9553 231.93C80.9451 231.93 80.935 231.93 80.9248 231.93C80.9146 231.93 80.9044 231.93 80.8942 231.93C80.8841 231.93 80.8739 231.93 80.8637 231.93C80.8535 231.93 80.8433 231.93 80.833 231.93C80.8228 231.93 80.8126 231.93 80.8024 231.93C80.7921 231.93 80.7819 231.93 80.7716 231.93C80.7614 231.93 80.7511 231.93 80.7409 231.93C80.7306 231.93 80.7204 231.93 80.7101 231.93C80.6998 231.93 80.6895 231.93 80.6792 231.93C80.6689 231.93 80.6586 231.93 80.6483 231.93C80.638 231.93 80.6277 231.93 80.6174 231.93C80.6071 231.93 80.5968 231.93 80.5864 231.93C80.5761 231.93 80.5657 231.93 80.5554 231.93C80.545 231.93 80.5347 231.93 80.5243 231.93C80.514 231.93 80.5036 231.93 80.4932 231.93C80.4828 231.93 80.4724 231.93 80.4621 231.93C80.4517 231.93 80.4413 231.93 80.4309 231.93C80.4204 231.93 80.41 231.93 80.3996 231.93C80.3892 231.93 80.3788 231.93 80.3683 231.93C80.3579 231.93 80.3474 231.93 80.337 231.93C80.3265 231.93 80.3161 231.93 80.3056 231.93C80.2951 231.93 80.2847 231.93 80.2742 231.93C80.2637 231.93 80.2532 231.93 80.2427 231.93C80.2322 231.93 80.2217 231.93 80.2112 231.93C80.2007 231.93 80.1902 231.93 80.1796 231.93C80.1691 231.93 80.1586 231.93 80.148 231.93C80.1375 231.93 80.127 231.93 80.1164 231.93C80.1058 231.93 80.0953 231.93 80.0847 231.93C80.0741 231.93 80.0636 231.93 80.053 231.93C80.0424 231.93 80.0318 231.93 80.0212 231.93C80.0106 231.93 80 231.93 79.9894 231.93C79.9788 231.93 79.9681 231.93 79.9575 231.93C79.9469 231.93 79.9362 231.93 79.9256 231.93C79.915 231.93 79.9043 231.93 79.8936 231.93C79.883 231.93 79.8723 231.93 79.8616 231.93C79.851 231.93 79.8403 231.93 79.8296 231.93C79.8189 231.93 79.8082 231.93 79.7975 231.93C79.7868 231.93 79.7761 231.93 79.7654 231.93C79.7547 231.93 79.7439 231.93 79.7332 231.93C79.7225 231.93 79.7117 231.93 79.701 231.93C79.6902 231.93 79.6795 231.93 79.6687 231.93C79.658 231.93 79.6472 231.93 79.6364 231.93C79.6256 231.93 79.6149 231.93 79.6041 231.93C79.5933 231.93 79.5825 231.93 79.5717 231.93C79.5609 231.93 79.5501 231.93 79.5392 231.93C79.5284 231.93 79.5176 231.93 79.5068 231.93C79.4959 231.93 79.4851 231.93 79.4742 231.93C79.4634 231.93 79.4525 231.93 79.4416 231.93C79.4308 231.93 79.4199 231.93 79.409 231.93C79.3982 231.93 79.3873 231.93 79.3764 231.93C79.3655 231.93 79.3546 231.93 79.3437 231.93C79.3328 231.93 79.3218 231.93 79.3109 231.93C79.3 231.93 79.2891 231.93 79.2781 231.93C79.2672 231.93 79.2562 231.93 79.2453 231.93C79.2343 231.93 79.2234 231.93 79.2124 231.93C79.2014 231.93 79.1905 231.93 79.1795 231.93C79.1685 231.93 79.1575 231.93 79.1465 231.93C79.1355 231.93 79.1245 231.93 79.1135 231.93C79.1025 231.93 79.0915 231.93 79.0804 231.93C79.0694 231.93 79.0584 231.93 79.0473 231.93C79.0363 231.93 79.0252 231.93 79.0142 231.93C79.0031 231.93 78.9921 231.93 78.981 231.93C78.9699 231.93 78.9588 231.93 78.9477 231.93C78.9367 231.93 78.9256 231.93 78.9145 231.93C78.9034 231.93 78.8923 231.93 78.8811 231.93C78.87 231.93 78.8589 231.93 78.8478 231.93C78.8366 231.93 78.8255 231.93 78.8144 231.93C78.8032 231.93 78.7921 231.93 78.7809 231.93C78.7697 231.93 78.7586 231.93 78.7474 231.93C78.7362 231.93 78.725 231.93 78.7139 231.93C78.7027 231.93 78.6915 231.93 78.6803 231.93C78.6691 231.93 78.6578 231.93 78.6466 231.93C78.6354 231.93 78.6242 231.93 78.6129 231.93C78.6017 231.93 78.5905 231.93 78.5792 231.93C78.568 231.93 78.5567 231.93 78.5455 231.93C78.5342 231.93 78.5229 231.93 78.5116 231.93C78.5004 231.93 78.4891 231.93 78.4778 231.93C78.4665 231.93 78.4552 231.93 78.4439 231.93C78.4326 231.93 78.4213 231.93 78.4099 231.93C78.3986 231.93 78.3873 231.93 78.376 231.93C78.3646 231.93 78.3533 231.93 78.3419 231.93C78.3306 231.93 78.3192 231.93 78.3079 231.93C78.2965 231.93 78.2851 231.93 78.2737 231.93C78.2623 231.93 78.251 231.93 78.2396 231.93C78.2282 231.93 78.2168 231.93 78.2054 231.93C78.1939 231.93 78.1825 231.93 78.1711 231.93C78.1597 231.93 78.1482 231.93 78.1368 231.93C78.1254 231.93 78.1139 231.93 78.1025 231.93C78.091 231.93 78.0795 231.93 78.0681 231.93C78.0566 231.93 78.0451 231.93 78.0336 231.93C78.0222 231.93 78.0107 231.93 77.9992 231.93C77.9877 231.93 77.9762 231.93 77.9647 231.93C77.9531 231.93 77.9416 231.93 77.9301 231.93C77.9186 231.93 77.907 231.93 77.8955 231.93C77.8839 231.93 77.8724 231.93 77.8608 231.93C77.8493 231.93 77.8377 231.93 77.8261 231.93C77.8146 231.93 77.803 231.93 77.7914 231.93C77.7798 231.93 77.7682 231.93 77.7566 231.93C77.745 231.93 77.7334 231.93 77.7218 231.93C77.7102 231.93 77.6985 231.93 77.6869 231.93C77.6753 231.93 77.6636 231.93 77.652 231.93C77.6403 231.93 77.6287 231.93 77.617 231.93C77.6054 231.93 77.5937 231.93 77.582 231.93C77.5704 231.93 77.5587 231.93 77.547 231.93C77.5353 231.93 77.5236 231.93 77.5119 231.93C77.5002 231.93 77.4885 231.93 77.4767 231.93C77.465 231.93 77.4533 231.93 77.4416 231.93C77.4298 231.93 77.4181 231.93 77.4063 231.93C77.3946 231.93 77.3828 231.93 77.3711 231.93V232.93ZM89.6449 232.93V233.93H95.1V232.93V231.93H89.6449V232.93ZM295.112 218.099V219.099H296.112V218.099H295.112ZM219.935 218.099V217.099H218.935V218.099H219.935ZM219.935 231.225H218.935V232.231L219.94 232.225L219.935 231.225ZM309.432 230.713H310.432V229.708L309.426 229.713L309.432 230.713ZM309.432 264.807V265.807H310.432V264.807H309.432ZM171.351 264.807H170.351V265.807H171.351V264.807ZM171.351 138.66V137.66H170.351V138.66H171.351ZM309.432 138.66L310.432 138.655L310.427 137.66H309.432V138.66ZM309.602 172.754V173.754H310.607L310.602 172.749L309.602 172.754ZM219.935 172.754V171.754H218.935V172.754H219.935ZM219.935 184.857H218.935V185.857H219.935V184.857ZM295.112 184.857H296.112V183.857H295.112V184.857ZM295.112 218.099V217.099H219.935V218.099V219.099H295.112V218.099ZM219.935 218.099H218.935V231.225H219.935H220.935V218.099H219.935ZM219.935 231.225L219.94 232.225L309.437 231.713L309.432 230.713L309.426 229.713L219.929 230.225L219.935 231.225ZM309.432 230.713H308.432V264.807H309.432H310.432V230.713H309.432ZM309.432 264.807V263.807H171.351V264.807V265.807H309.432V264.807ZM171.351 264.807H172.351V138.66H171.351H170.351V264.807H171.351ZM171.351 138.66V139.66H309.432V138.66V137.66H171.351V138.66ZM309.432 138.66L308.432 138.665L308.602 172.759L309.602 172.754L310.602 172.749L310.432 138.655L309.432 138.66ZM309.602 172.754V171.754H219.935V172.754V173.754H309.602V172.754ZM219.935 172.754H218.935V184.857H219.935H220.935V172.754H219.935ZM219.935 184.857V185.857H295.112V184.857V183.857H219.935V184.857ZM295.112 184.857H294.112V218.099H295.112H296.112V184.857H295.112ZM411.409 264.807L410.65 265.459L410.949 265.807H411.409V264.807ZM376.462 224.065L377.221 223.414L376.922 223.065H376.462V224.065ZM359.927 224.065V223.065H358.927V224.065H359.927ZM359.927 264.807V265.807H360.927V264.807H359.927ZM313.9 264.807H312.9V265.807H313.9V264.807ZM313.9 138.66V137.66H312.9V138.66H313.9ZM440.048 143.944L439.647 144.861L439.652 144.863L440.048 143.944ZM458.97 158.775L458.149 159.347L458.155 159.355L458.161 159.363L458.97 158.775ZM456.242 208.041L455.5 207.371L455.494 207.377L456.242 208.041ZM430.16 222.19L429.951 221.212L428.304 221.565L429.402 222.842L430.16 222.19ZM466.811 264.807V265.807H468.99L467.57 264.155L466.811 264.807ZM418.568 173.947L417.836 174.627L417.861 174.655L417.888 174.68L418.568 173.947ZM412.431 171.049L412.296 172.04L412.302 172.041L412.431 171.049ZM395.384 170.538V169.538H395.368L395.352 169.538L395.384 170.538ZM359.927 170.708V169.708H358.927V170.708H359.927ZM359.927 191.505H358.927V192.505H359.927V191.505ZM412.431 190.994L412.302 190.002L412.296 190.003L412.431 190.994ZM418.568 188.437L419.247 189.172L419.249 189.17L418.568 188.437ZM411.409 264.807L412.168 264.156L377.221 223.414L376.462 224.065L375.703 224.716L410.65 265.459L411.409 264.807ZM376.462 224.065V223.065H359.927V224.065V225.065H376.462V224.065ZM359.927 224.065H358.927V264.807H359.927H360.927V224.065H359.927ZM359.927 264.807V263.807H313.9V264.807V265.807H359.927V264.807ZM313.9 264.807H314.9V138.66H313.9H312.9V264.807H313.9ZM313.9 138.66V139.66H412.091V138.66V137.66H313.9V138.66ZM412.091 138.66V139.66C422.549 139.66 431.727 141.403 439.647 144.861L440.048 143.944L440.448 143.028C432.23 139.44 422.77 137.66 412.091 137.66V138.66ZM440.048 143.944L439.652 144.863C447.689 148.323 453.839 153.157 458.149 159.347L458.97 158.775L459.79 158.204C455.236 151.665 448.771 146.611 440.443 143.026L440.048 143.944ZM458.97 158.775L458.161 159.363C462.573 165.43 464.789 172.494 464.789 180.595H465.789H466.789C466.789 172.104 464.458 164.621 459.779 158.187L458.97 158.775ZM465.789 180.595H464.789V181.277H465.789H466.789V180.595H465.789ZM465.789 181.277H464.789C464.789 191.862 461.676 200.534 455.5 207.371L456.242 208.041L456.984 208.711C463.537 201.456 466.789 192.285 466.789 181.277H465.789ZM456.242 208.041L455.494 207.377C449.413 214.233 440.924 218.861 429.951 221.212L430.16 222.19L430.37 223.168C441.671 220.746 450.571 215.941 456.99 208.705L456.242 208.041ZM430.16 222.19L429.402 222.842L466.053 265.46L466.811 264.807L467.57 264.155L430.919 221.538L430.16 222.19ZM466.811 264.807V263.807H411.409V264.807V265.807H466.811V264.807ZM420.955 181.277H421.955C421.955 177.745 421.135 174.966 419.249 173.214L418.568 173.947L417.888 174.68C419.184 175.883 419.955 177.99 419.955 181.277H420.955ZM418.568 173.947L419.301 173.266C417.633 171.47 415.355 170.422 412.561 170.057L412.431 171.049L412.302 172.041C414.736 172.358 416.549 173.242 417.836 174.627L418.568 173.947ZM412.431 171.049L412.567 170.058C409.996 169.708 406.075 169.538 400.839 169.538V170.538V171.538C406.059 171.538 409.867 171.708 412.296 172.04L412.431 171.049ZM400.839 170.538V169.538H395.384V170.538V171.538H400.839V170.538ZM395.384 170.538L395.352 169.538C391.85 169.651 380.052 169.708 359.927 169.708V170.708V171.708C380.032 171.708 391.873 171.651 395.417 171.537L395.384 170.538ZM359.927 170.708H358.927V191.505H359.927H360.927V170.708H359.927ZM359.927 191.505V192.505H400.669V191.505V190.505H359.927V191.505ZM400.669 191.505V192.505H400.839V191.505V190.505H400.669V191.505ZM400.839 191.505V192.505C406.075 192.505 409.996 192.335 412.567 191.985L412.431 190.994L412.296 190.003C409.867 190.334 406.059 190.505 400.839 190.505V191.505ZM412.431 190.994L412.561 191.986C415.316 191.626 417.576 190.714 419.247 189.172L418.568 188.437L417.89 187.702C416.606 188.888 414.774 189.68 412.302 190.002L412.431 190.994ZM418.568 188.437L419.249 189.17C421.129 187.424 421.955 184.708 421.955 181.277H420.955H419.955C419.955 184.438 419.19 186.495 417.888 187.704L418.568 188.437ZM553.967 220.656H552.967V221.656H553.967V220.656ZM553.967 196.449V195.449H552.967V196.449H553.967ZM636.645 196.449H637.645V195.449H636.645V196.449ZM636.645 264.807V265.807H637.645V264.807H636.645ZM605.96 264.807L605.029 265.172L605.278 265.807H605.96V264.807ZM602.892 256.966L603.823 256.601L603.412 255.552L602.419 256.085L602.892 256.966ZM509.815 259.523L510.215 258.606L510.215 258.606L509.815 259.523ZM478.278 235.657L477.479 236.259L477.484 236.264L478.278 235.657ZM478.278 167.81L477.484 167.203L477.479 167.209L478.278 167.81ZM509.645 144.115L510.041 145.033L510.044 145.031L509.645 144.115ZM594.368 141.728L594.033 142.67L594.036 142.671L594.368 141.728ZM636.815 187.925V188.925H637.996L637.802 187.761L636.815 187.925ZM586.356 187.925L585.397 188.208L585.608 188.925H586.356V187.925ZM574.935 175.652L574.539 176.57L574.549 176.574L574.56 176.579L574.935 175.652ZM537.602 175.481L537.171 174.579L537.163 174.583L537.602 175.481ZM525.839 185.88L526.678 186.425L526.678 186.425L525.839 185.88ZM525.839 217.928L525.001 218.473L525.007 218.483L525.839 217.928ZM537.602 228.156L537.163 229.055L537.171 229.059L537.602 228.156ZM569.991 229.009L570.34 229.946L570.351 229.942L569.991 229.009ZM581.924 220.656L582.7 221.286L584.025 219.656H581.924V220.656ZM553.967 220.656H554.967V196.449H553.967H552.967V220.656H553.967ZM553.967 196.449V197.449H636.645V196.449V195.449H553.967V196.449ZM636.645 196.449H635.645V264.807H636.645H637.645V196.449H636.645ZM636.645 264.807V263.807H605.96V264.807V265.807H636.645V264.807ZM605.96 264.807L606.892 264.443L603.823 256.601L602.892 256.966L601.961 257.33L605.029 265.172L605.96 264.807ZM602.892 256.966L602.419 256.085C588.61 263.494 572.413 267.217 553.796 267.217V268.217V269.217C572.683 269.217 589.216 265.439 603.365 257.847L602.892 256.966ZM553.796 268.217V267.217C537.895 267.217 523.373 264.342 510.215 258.606L509.815 259.523L509.416 260.44C522.851 266.296 537.649 269.217 553.796 269.217V268.217ZM509.815 259.523L510.215 258.606C497.052 252.869 486.684 245.012 479.073 235.05L478.278 235.657L477.484 236.264C485.328 246.532 495.985 254.585 509.416 260.44L509.815 259.523ZM478.278 235.657L479.077 235.056C471.59 225.11 467.857 214.069 467.857 201.904H466.857H465.857C465.857 214.514 469.738 225.975 477.479 236.259L478.278 235.657ZM466.857 201.904H467.857C467.857 189.507 471.593 178.353 479.077 168.411L478.278 167.81L477.479 167.209C469.735 177.496 465.857 189.071 465.857 201.904H466.857ZM478.278 167.81L479.073 168.417C486.684 158.455 496.994 150.656 510.041 145.033L509.645 144.115L509.249 143.196C495.929 148.938 485.328 156.935 477.484 167.203L478.278 167.81ZM509.645 144.115L510.044 145.031C523.201 139.296 537.781 136.421 553.796 136.421V135.421V134.421C537.537 134.421 522.681 137.341 509.245 143.198L509.645 144.115ZM553.796 135.421V136.421C568.935 136.421 582.342 138.511 594.033 142.67L594.368 141.728L594.704 140.786C582.756 136.535 569.116 134.421 553.796 134.421V135.421ZM594.368 141.728L594.036 142.671C605.844 146.832 615.3 152.775 622.445 160.478L623.178 159.798L623.911 159.118C616.509 151.137 606.759 145.034 594.701 140.785L594.368 141.728ZM623.178 159.798L622.445 160.478C629.58 168.171 634.042 177.366 635.829 188.09L636.815 187.925L637.802 187.761C635.952 176.665 631.322 167.108 623.911 159.118L623.178 159.798ZM636.815 187.925V186.925H586.356V187.925V188.925H636.815V187.925ZM586.356 187.925L587.316 187.643C585.519 181.536 581.484 177.218 575.309 174.724L574.935 175.652L574.56 176.579C580.205 178.858 583.784 182.723 585.397 188.208L586.356 187.925ZM574.935 175.652L575.331 174.733C569.379 172.166 562.247 170.901 553.967 170.901V171.901V172.901C562.052 172.901 568.899 174.137 574.539 176.57L574.935 175.652ZM553.967 171.901V170.901C547.918 170.901 542.315 172.124 537.171 174.579L537.602 175.481L538.033 176.384C542.89 174.065 548.196 172.901 553.967 172.901V171.901ZM537.602 175.481L537.163 174.583C532.114 177.048 528.055 180.637 525.001 185.335L525.839 185.88L526.678 186.425C529.534 182.031 533.316 178.687 538.041 176.38L537.602 175.481ZM525.839 185.88L525.001 185.335C521.927 190.064 520.407 195.6 520.407 201.904H521.407H522.407C522.407 195.934 523.842 190.788 526.678 186.425L525.839 185.88ZM521.407 201.904H520.407C520.407 208.208 521.927 213.744 525.001 218.473L525.839 217.928L526.678 217.383C523.842 213.02 522.407 207.874 522.407 201.904H521.407ZM525.839 217.928L525.007 218.483C528.063 223.066 532.12 226.592 537.163 229.055L537.602 228.156L538.041 227.258C533.31 224.947 529.526 221.655 526.671 217.374L525.839 217.928ZM537.602 228.156L537.171 229.059C542.315 231.514 547.918 232.736 553.967 232.736V231.736V230.736C548.196 230.736 542.89 229.572 538.033 227.254L537.602 228.156ZM553.967 231.736V232.736C559.869 232.736 565.33 231.81 570.34 229.946L569.991 229.009L569.642 228.072C564.879 229.844 559.657 230.736 553.967 230.736V231.736ZM569.991 229.009L570.351 229.942C575.491 227.956 579.62 225.077 582.7 221.286L581.924 220.656L581.148 220.025C578.318 223.508 574.492 226.198 569.631 228.076L569.991 229.009ZM581.924 220.656V219.656H553.967V220.656V221.656H581.924V220.656ZM815.356 264.807V265.807H817.036L816.235 264.331L815.356 264.807ZM766.772 264.807L765.894 265.286L766.178 265.807H766.772V264.807ZM756.374 245.715L757.252 245.237L756.968 244.715H756.374V245.715ZM689.038 245.715V244.715H688.444L688.16 245.237L689.038 245.715ZM678.639 264.807V265.807H679.233L679.517 265.286L678.639 264.807ZM630.055 264.807L629.176 264.331L628.376 265.807H630.055V264.807ZM698.414 138.66V137.66H697.818L697.535 138.183L698.414 138.66ZM746.998 138.66L747.877 138.183L747.593 137.66H746.998V138.66ZM722.791 183.493L723.671 183.017L722.795 181.4L721.913 183.014L722.791 183.493ZM705.744 214.689L704.866 214.21L704.058 215.689H705.744V214.689ZM739.667 214.689V215.689H741.345L740.547 214.213L739.667 214.689ZM815.356 264.807V263.807H766.772V264.807V265.807H815.356V264.807ZM766.772 264.807L767.65 264.329L757.252 245.237L756.374 245.715L755.495 246.193L765.894 265.286L766.772 264.807ZM756.374 245.715V244.715H689.038V245.715V246.715H756.374V245.715ZM689.038 245.715L688.16 245.237L677.761 264.329L678.639 264.807L679.517 265.286L689.916 246.193L689.038 245.715ZM678.639 264.807V263.807H630.055V264.807V265.807H678.639V264.807ZM630.055 264.807L630.934 265.284L699.293 139.136L698.414 138.66L697.535 138.183L629.176 264.331L630.055 264.807ZM698.414 138.66V139.66H746.998V138.66V137.66H698.414V138.66ZM746.998 138.66L746.119 139.136L814.477 265.284L815.356 264.807L816.235 264.331L747.877 138.183L746.998 138.66ZM722.791 183.493L721.913 183.014L704.866 214.21L705.744 214.689L706.621 215.169L723.668 183.973L722.791 183.493ZM705.744 214.689V215.689H739.667V214.689V213.689H705.744V214.689ZM739.667 214.689L740.547 214.213L723.671 183.017L722.791 183.493L721.911 183.969L738.788 215.165L739.667 214.689ZM999.142 138.66H1000.14V137.66H999.142V138.66ZM999.142 264.807V265.807H1000.14V264.807H999.142ZM950.558 264.807H949.558V265.807H950.558V264.807ZM950.558 218.61H951.558L949.659 218.172L950.558 218.61ZM928.056 264.807V265.807H928.681L928.955 265.245L928.056 264.807ZM884.586 264.807L883.697 265.265L883.976 265.807H884.586V264.807ZM860.549 218.099L861.439 217.641L859.549 218.099H860.549ZM860.549 264.807V265.807H861.549V264.807H860.549ZM811.965 264.807H810.965V265.807H811.965V264.807ZM811.965 138.66V137.66H810.965V138.66H811.965ZM866.516 138.66L867.414 138.221L867.14 137.66H866.516V138.66ZM906.406 220.315L905.507 220.754L906.408 222.597L907.305 220.752L906.406 220.315ZM946.125 138.66V137.66H945.5L945.226 138.222L946.125 138.66ZM999.142 138.66H998.142V264.807H999.142H1000.14V138.66H999.142ZM999.142 264.807V263.807H950.558V264.807V265.807H999.142V264.807ZM950.558 264.807H951.558V218.61H950.558H949.558V264.807H950.558ZM950.558 218.61L949.659 218.172L927.157 264.37L928.056 264.807L928.955 265.245L951.457 219.048L950.558 218.61ZM928.056 264.807V263.807H884.586V264.807V265.807H928.056V264.807ZM884.586 264.807L885.475 264.35L861.439 217.641L860.549 218.099L859.66 218.556L883.697 265.265L884.586 264.807ZM860.549 218.099H859.549V264.807H860.549H861.549V218.099H860.549ZM860.549 264.807V263.807H811.965V264.807V265.807H860.549V264.807ZM811.965 264.807H812.965V138.66H811.965H810.965V264.807H811.965ZM811.965 138.66V139.66H866.516V138.66V137.66H811.965V138.66ZM866.516 138.66L865.617 139.099L905.507 220.754L906.406 220.315L907.304 219.876L867.414 138.221L866.516 138.66ZM906.406 220.315L907.305 220.752L947.025 139.097L946.125 138.66L945.226 138.222L905.507 219.877L906.406 220.315ZM946.125 138.66V139.66H999.142V138.66V137.66H946.125V138.66ZM1130.91 144.626L1130.5 145.538L1130.51 145.541L1130.91 144.626ZM1161.08 168.321L1160.27 168.905L1160.27 168.91L1161.08 168.321ZM1161.08 235.998L1160.27 235.41L1160.27 235.41L1161.08 235.998ZM1130.91 259.693L1131.31 260.608L1131.32 260.605L1130.91 259.693ZM1044.99 259.693L1044.58 260.606L1044.59 260.61L1044.99 259.693ZM1013.97 235.998L1013.17 236.6L1013.18 236.609L1013.97 235.998ZM1013.97 168.321L1013.17 167.714L1013.17 167.72L1013.97 168.321ZM1044.99 144.626L1045.39 145.542L1045.4 145.54L1044.99 144.626ZM1103.46 228.497L1103.04 227.591L1103.03 227.595L1103.46 228.497ZM1115.91 218.099L1115.09 217.525L1115.09 217.525L1115.91 218.099ZM1115.91 186.391L1115.09 186.965L1115.1 186.974L1115.91 186.391ZM1103.46 175.993L1103.03 176.895L1103.04 176.899L1103.46 175.993ZM1072.1 175.993L1071.67 175.086L1071.67 175.09L1072.1 175.993ZM1059.65 186.391L1058.84 185.804L1058.84 185.808L1059.65 186.391ZM1059.65 218.099L1058.83 218.672L1058.84 218.679L1058.84 218.686L1059.65 218.099ZM1072.1 228.497L1071.67 229.4L1071.67 229.404L1072.1 228.497ZM1087.61 135.932V136.932C1103.51 136.932 1117.8 139.807 1130.5 145.538L1130.91 144.626L1131.32 143.715C1118.33 137.853 1103.76 134.932 1087.61 134.932V135.932ZM1130.91 144.626L1130.51 145.541C1143.21 151.16 1153.11 158.953 1160.27 168.905L1161.08 168.321L1161.89 167.738C1154.5 157.461 1144.3 149.457 1131.31 143.712L1130.91 144.626ZM1161.08 168.321L1160.27 168.91C1167.42 178.736 1170.99 189.837 1170.99 202.245H1171.99H1172.99C1172.99 189.423 1169.29 177.909 1161.89 167.733L1161.08 168.321ZM1171.99 202.245H1170.99C1170.99 214.537 1167.42 225.582 1160.27 235.41L1161.08 235.998L1161.89 236.586C1169.29 226.412 1172.99 214.955 1172.99 202.245H1171.99ZM1161.08 235.998L1160.27 235.41C1153.12 245.252 1143.2 253.047 1130.5 258.782L1130.91 259.693L1131.32 260.605C1144.3 254.748 1154.5 246.746 1161.89 236.586L1161.08 235.998ZM1130.91 259.693L1130.51 258.779C1117.81 264.397 1103.51 267.217 1087.61 267.217V268.217V269.217C1103.75 269.217 1118.33 266.354 1131.31 260.608L1130.91 259.693ZM1087.61 268.217V267.217C1072.39 267.217 1058.33 264.4 1045.39 258.776L1044.99 259.693L1044.59 260.61C1057.8 266.352 1072.14 269.217 1087.61 269.217V268.217ZM1044.99 259.693L1045.4 258.781C1032.58 253.044 1022.37 245.242 1014.76 235.387L1013.97 235.998L1013.18 236.609C1021.02 246.756 1031.5 254.751 1044.58 260.606L1044.99 259.693ZM1013.97 235.998L1014.77 235.397C1007.28 225.451 1003.55 214.41 1003.55 202.245H1002.55H1001.55C1001.55 214.855 1005.43 226.316 1013.17 236.599L1013.97 235.998ZM1002.55 202.245H1003.55C1003.55 189.964 1007.28 178.866 1014.77 168.923L1013.97 168.321L1013.17 167.72C1005.43 178.005 1001.55 189.524 1001.55 202.245H1002.55ZM1013.97 168.321L1014.76 168.929C1022.38 158.963 1032.58 151.164 1045.39 145.542L1044.99 144.626L1044.59 143.71C1031.5 149.453 1021.01 157.451 1013.17 167.714L1013.97 168.321ZM1044.99 144.626L1045.4 145.54C1058.33 139.805 1072.4 136.932 1087.61 136.932V135.932V134.932C1072.14 134.932 1057.79 137.855 1044.59 143.712L1044.99 144.626ZM1087.78 232.077V233.077C1093.39 233.077 1098.76 231.85 1103.89 229.4L1103.46 228.497L1103.03 227.595C1098.17 229.918 1093.08 231.077 1087.78 231.077V232.077ZM1103.46 228.497L1103.89 229.404C1109.16 226.944 1113.44 223.364 1116.73 218.672L1115.91 218.099L1115.09 217.525C1112.01 221.925 1108 225.277 1103.04 227.591L1103.46 228.497ZM1115.91 218.099L1116.73 218.672C1120.04 213.944 1121.68 208.455 1121.68 202.245H1120.68H1119.68C1119.68 208.081 1118.14 213.162 1115.09 217.525L1115.91 218.099ZM1120.68 202.245H1121.68C1121.68 195.926 1120.04 190.431 1116.72 185.808L1115.91 186.391L1115.1 186.974C1118.14 191.216 1119.68 196.29 1119.68 202.245H1120.68ZM1115.91 186.391L1116.73 185.818C1113.44 181.126 1109.16 177.546 1103.89 175.086L1103.46 175.993L1103.04 176.899C1108 179.212 1112.01 182.565 1115.09 186.965L1115.91 186.391ZM1103.46 175.993L1103.89 175.09C1098.76 172.64 1093.39 171.413 1087.78 171.413V172.413V173.413C1093.08 173.413 1098.17 174.572 1103.03 176.895L1103.46 175.993ZM1087.78 172.413V171.413C1082.29 171.413 1076.91 172.642 1071.67 175.086L1072.1 175.993L1072.52 176.899C1077.51 174.57 1082.59 173.413 1087.78 173.413V172.413ZM1072.1 175.993L1071.67 175.09C1066.51 177.55 1062.24 181.125 1058.84 185.804L1059.65 186.391L1060.46 186.978C1063.66 182.566 1067.68 179.209 1072.53 176.895L1072.1 175.993ZM1059.65 186.391L1058.84 185.808C1055.52 190.431 1053.88 195.926 1053.88 202.245H1054.88H1055.88C1055.88 196.29 1057.42 191.216 1060.47 186.974L1059.65 186.391ZM1054.88 202.245H1053.88C1053.88 208.455 1055.52 213.944 1058.83 218.672L1059.65 218.099L1060.47 217.525C1057.42 213.162 1055.88 208.081 1055.88 202.245H1054.88ZM1059.65 218.099L1058.84 218.686C1062.24 223.365 1066.51 226.94 1071.67 229.4L1072.1 228.497L1072.53 227.595C1067.68 225.281 1063.66 221.924 1060.46 217.512L1059.65 218.099ZM1072.1 228.497L1071.67 229.404C1076.91 231.848 1082.29 233.077 1087.78 233.077V232.077V231.077C1082.59 231.077 1077.51 229.92 1072.52 227.591L1072.1 228.497Z" fill="#161616" mask="url(#path-2-outside-1_580_3290)"/>
</svg>
