<svg width="1217" height="276" viewBox="0 0 1217 276" fill="none" xmlns="http://www.w3.org/2000/svg">
<path d="M50.4878 134.457H5.45003e-05V3.36591H50.4878V134.457ZM108.145 134.457H57.6568V3.36591L108.145 134.457ZM231.264 134.457H180.776H231.264ZM180.776 77.2375V3.36591H231.264V134.457H180.776L108.145 60.5854V134.457H57.6568V3.36591H108.145L180.776 77.2375ZM329.37 63.4198L395.447 134.457H335.571L288.803 82.0205V134.457H238.315V3.36591H288.803V46.5905L332.559 3.36591H392.967L329.37 63.4198ZM365.434 69.0886C365.434 55.9795 369.391 44.1695 377.303 33.6586C385.334 23.1477 396.199 14.9397 409.899 9.03471C423.717 3.01161 439.01 5.2662e-05 455.781 5.2662e-05C471.488 5.2662e-05 485.483 2.48016 497.765 7.44036C510.166 12.2825 520.145 19.1323 527.704 27.9898C535.38 36.7292 540.163 46.7677 542.053 58.1053H489.616C487.372 51.9641 482.944 47.0629 476.33 43.4018C469.835 39.7407 463.044 37.9102 455.958 37.9102C449.699 37.9102 443.675 39.1502 437.889 41.6303C432.22 44.1104 427.555 47.7125 423.894 52.4365C420.351 57.1605 418.579 62.7112 418.579 69.0886C418.579 75.466 420.351 81.0167 423.894 85.7407C427.555 90.3466 432.22 93.8896 437.889 96.3697C443.675 98.8498 449.699 100.09 455.958 100.09C463.752 100.09 470.602 98.3774 476.507 94.9525C482.412 91.5276 486.723 86.6264 489.439 80.249H541.876C539.868 91.4685 535.085 101.448 527.526 110.187C519.968 118.927 509.989 125.777 497.588 130.737C485.306 135.579 471.37 138 455.781 138C439.129 138 423.894 134.988 410.076 128.965C396.258 122.942 385.334 114.675 377.303 104.164C369.391 93.6534 365.434 81.9615 365.434 69.0886ZM596.144 3.36591V96.3697H674.976V134.457H545.657V3.36591H596.144ZM786.206 3.36591H837.756V69.62C837.756 82.3748 834.036 94.0077 826.596 104.519C819.274 114.911 809.471 123.119 797.189 129.142C784.906 135.047 771.561 138 757.153 138C741.328 138 727.037 135.047 714.283 129.142C701.528 123.237 691.489 115.148 684.167 104.873C676.963 94.4801 673.302 82.8472 673.184 69.9743V3.36591H725.797V69.4429C725.797 78.8909 728.632 85.8588 734.301 90.3466C740.088 94.7163 747.764 96.9011 757.33 96.9011C765.125 96.9011 771.856 94.6572 777.525 90.1694C783.312 85.5635 786.206 78.6547 786.206 69.4429V3.36591ZM987.316 65.7227C997.237 67.7304 1004.74 71.2144 1009.81 76.1746C1014.89 81.0167 1017.43 87.9846 1017.43 97.0783V97.7869C1017.43 110.305 1011.7 119.576 1000.25 125.599C988.911 131.504 973.263 134.457 953.304 134.457H952.949H947.281H844.002V3.36591H961.453C975.152 3.48401 986.076 6.31841 994.225 11.8691C1002.37 17.4198 1006.45 25.2735 1006.45 35.4301V36.1387C1006.45 43.8152 1004.85 50.0745 1001.67 54.9166C998.477 59.7587 993.694 63.3607 987.316 65.7227ZM935.943 54.0308C941.257 54.0308 945.214 53.9127 947.812 53.6765C950.41 53.3222 952.595 52.4365 954.367 51.0193C956.256 49.484 957.201 46.9448 957.201 43.4018C957.201 40.2131 956.315 37.9102 954.544 36.493C952.89 35.0758 950.646 34.19 947.812 33.8357C945.096 33.4814 941.139 33.3043 935.943 33.3043H935.766H890.947V53.8537L927.085 54.0308H935.943ZM941.789 101.33C947.93 101.33 952.536 101.153 955.607 100.798C958.795 100.444 961.275 99.4993 963.047 97.964C964.937 96.3106 965.881 93.7124 965.881 90.1694C965.881 86.7445 964.937 84.3235 963.047 82.9063C961.275 81.371 958.795 80.4262 955.607 80.0719C952.536 79.7176 947.93 79.5404 941.789 79.5404H941.612H890.947V101.153C906.418 101.153 917.224 101.212 923.365 101.33C929.625 101.33 933.876 101.33 936.12 101.33H941.789ZM143.314 203.723C153.235 205.73 160.734 209.214 165.812 214.175C170.891 219.017 173.43 225.985 173.43 235.078V235.787C173.43 248.305 167.702 257.576 156.246 263.599C144.909 269.504 129.261 272.457 109.302 272.457H108.947H103.279H5.45003e-05V141.366H117.451C131.15 141.484 142.074 144.318 150.223 149.869C158.372 155.42 162.447 163.273 162.447 173.43V174.139C162.447 181.815 160.852 188.074 157.664 192.917C154.475 197.759 149.692 201.361 143.314 203.723ZM91.9409 192.031C97.2554 192.031 101.212 191.913 103.81 191.677C106.408 191.322 108.593 190.436 110.365 189.019C112.254 187.484 113.199 184.945 113.199 181.402C113.199 178.213 112.313 175.91 110.542 174.493C108.888 173.076 106.644 172.19 103.81 171.836C101.094 171.481 97.1373 171.304 91.9409 171.304H91.7638H46.9448V191.854L83.0834 192.031H91.9409ZM97.7869 239.33C103.928 239.33 108.534 239.153 111.605 238.798C114.793 238.444 117.273 237.499 119.045 235.964C120.934 234.311 121.879 231.712 121.879 228.169C121.879 224.745 120.934 222.323 119.045 220.906C117.273 219.371 114.793 218.426 111.605 218.072C108.534 217.718 103.928 217.54 97.7869 217.54H97.6097H46.9448V239.153C62.4159 239.153 73.2221 239.212 79.3633 239.33C85.6226 239.33 89.8742 239.33 92.1181 239.33H97.7869ZM305.636 223.918H227.513V237.558L320.517 237.027V272.457H177.025V141.366H320.517L320.694 176.796H227.513V189.374H305.636V223.918ZM426.49 272.457L390.174 230.118H372.991V272.457H325.16V141.366H427.199C438.182 141.366 447.866 143.196 456.251 146.858C464.754 150.519 471.309 155.656 475.915 162.27C480.639 168.765 483.001 176.324 483.001 184.945V185.653C483.001 196.873 479.694 206.144 473.08 213.466C466.585 220.788 457.55 225.689 445.977 228.169L484.064 272.457H426.49ZM436.41 185.653C436.41 182.11 435.584 179.571 433.93 178.036C432.395 176.383 430.269 175.379 427.553 175.024C424.955 174.67 420.939 174.493 415.507 174.493H409.838C406.177 174.611 393.894 174.67 372.991 174.67V196.282H415.33H415.507C420.939 196.282 424.955 196.105 427.553 195.751C430.269 195.397 432.395 194.511 433.93 193.094C435.584 191.558 436.41 189.078 436.41 185.653ZM574.635 226.575V201.42H660.552V272.457H628.665L625.477 264.308C610.95 272.103 593.944 276 574.457 276C557.805 276 542.57 272.988 528.753 266.965C514.935 260.942 504.011 252.675 495.98 242.164C488.067 231.653 484.111 219.961 484.111 207.089C484.111 193.979 488.067 182.169 495.98 171.659C504.011 161.148 514.876 152.94 528.576 147.035C542.393 141.012 557.687 138 574.457 138C590.283 138 604.337 140.185 616.619 144.555C629.02 148.924 638.999 155.184 646.557 163.333C654.116 171.481 658.84 181.225 660.729 192.562H608.293C606.522 186.539 602.565 182.288 596.424 179.807C590.401 177.209 583.138 175.91 574.635 175.91C568.493 175.91 562.825 177.15 557.628 179.63C552.55 182.11 548.475 185.712 545.405 190.436C542.334 195.16 540.799 200.711 540.799 207.089C540.799 213.466 542.334 219.017 545.405 223.741C548.475 228.347 552.55 231.89 557.628 234.37C562.825 236.85 568.493 238.09 574.635 238.09C580.658 238.09 586.208 237.145 591.287 235.255C596.483 233.248 600.617 230.354 603.687 226.575H574.635ZM846.266 272.457H795.779L784.972 252.616H714.998L704.192 272.457H653.704L724.741 141.366H775.229L846.266 272.457ZM750.074 187.956L732.359 220.375H767.612L750.074 187.956ZM1037.25 141.366V272.457H986.766V224.449L963.382 272.457H918.209L893.23 223.918V272.457H842.743V141.366H899.431L940.884 226.221L982.16 141.366H1037.25ZM1129.19 138.532C1145.84 138.532 1160.84 141.543 1174.18 147.566C1187.53 153.471 1197.98 161.679 1205.54 172.19C1213.1 182.583 1216.88 194.334 1216.88 207.443C1216.88 220.434 1213.1 232.126 1205.54 242.519C1197.98 252.911 1187.53 261.119 1174.18 267.142C1160.84 273.047 1145.84 276 1129.19 276C1113.25 276 1098.48 273.047 1084.9 267.142C1071.44 261.119 1060.69 252.911 1052.66 242.519C1044.75 232.008 1040.79 220.316 1040.79 207.443C1040.79 194.452 1044.75 182.701 1052.66 172.19C1060.69 161.679 1071.44 153.471 1084.9 147.566C1098.48 141.543 1113.25 138.532 1129.19 138.532ZM1129.37 238.444C1135.03 238.444 1140.47 237.204 1145.66 234.724C1150.98 232.244 1155.29 228.642 1158.6 223.918C1161.9 219.194 1163.56 213.702 1163.56 207.443C1163.56 201.065 1161.9 195.574 1158.6 190.968C1155.29 186.244 1150.98 182.642 1145.66 180.162C1140.47 177.682 1135.03 176.442 1129.37 176.442C1123.82 176.442 1118.38 177.682 1113.07 180.162C1107.87 182.642 1103.56 186.244 1100.14 190.968C1096.83 195.574 1095.18 201.065 1095.18 207.443C1095.18 213.702 1096.83 219.194 1100.14 223.918C1103.56 228.642 1107.87 232.244 1113.07 234.724C1118.38 237.204 1123.82 238.444 1129.37 238.444Z" fill="#161616"/>
</svg>
