<svg width="1080" height="1080" viewBox="0 0 1080 1080" fill="none" xmlns="http://www.w3.org/2000/svg">
<g clip-path="url(#clip0_524_2449)">
<path d="M145.548 885.1V879.044C145.548 736.56 145.548 558.153 145.548 415.67C145.548 411.632 146.725 409.614 150.258 407.763C276.087 338.624 401.749 269.317 527.41 199.505C536.325 194.627 542.381 194.627 551.297 199.505C675.612 268.476 800.096 337.279 924.58 405.744C930.972 409.277 933.327 412.81 933.327 420.211C932.991 525.518 933.159 666.917 933.159 772.223V778.952C923.066 780.466 913.309 781.98 903.552 783.158C902.711 783.158 901.365 781.98 901.029 781.139C900.524 779.793 901.029 778.279 901.029 776.765C901.029 674.655 901.029 536.62 901.029 434.51C901.029 430.305 899.851 427.95 895.982 425.763C795.386 370.418 694.789 314.737 594.193 259.224C577.203 249.804 560.213 240.551 543.222 230.963C540.363 229.449 538.344 229.449 535.484 230.963C445.823 280.588 356.161 330.045 266.499 379.502C238.406 394.978 210.481 410.455 182.388 425.763C178.856 427.781 177.51 429.968 177.51 434.006C177.51 568.751 177.51 739.42 177.51 874.165C177.51 880.726 177.51 880.726 170.949 881.567C162.706 882.744 154.464 883.754 145.548 884.763V885.1Z" fill="black"/>
<path d="M588.924 803.142C588.924 804.871 588.646 806.992 587.088 808.657C585.585 810.264 583.544 810.73 581.907 810.927L581.908 810.927C555.847 814.29 529.619 817.821 503.562 821.519L503.508 821.527L503.454 821.533C501.494 821.751 499.512 821.589 497.698 820.558C495.923 819.55 494.803 817.986 493.983 816.448L493.968 816.421L493.954 816.392C475.861 780.994 457.619 745.595 439.369 710.331C439.351 727.613 439.281 744.866 439.208 762.112C439.123 781.837 439.04 801.553 439.04 821.31C439.04 823.725 438.63 826.255 436.831 828.186C435.074 830.072 432.644 830.667 430.514 830.945L430.503 830.946C404.108 834.309 377.712 837.84 351.316 841.539L351.304 841.54L351.292 841.542C348.457 841.92 345.178 841.668 343.4 838.747C342.682 837.566 342.477 836.308 342.395 835.402C342.313 834.497 342.328 833.493 342.328 832.749V832.742C342.412 790.853 342.537 748.964 342.664 707.056C342.79 665.148 342.916 623.221 343 581.252V522.045C343.001 520.082 343.151 517.579 344.731 515.593C346.388 513.51 348.885 512.857 351.203 512.577L360.655 511.364C382.711 508.501 404.773 505.413 426.855 502.321L426.863 502.32C429.485 501.958 432.21 501.876 434.745 503.075C437.173 504.223 438.846 506.262 440.216 508.775L440.487 509.284L440.495 509.301L440.503 509.317C457.604 543.216 475.108 576.975 492.548 610.748V502.363C492.548 499.776 493.002 497.135 494.952 495.185C496.796 493.341 499.314 492.823 501.416 492.559C527.476 489.197 553.368 485.666 579.448 482.133L579.51 482.124L579.573 482.118C580.529 482.022 581.508 481.977 582.467 481.935C583.45 481.893 584.446 481.853 585.563 481.773L589.429 481.497V491.093C589.429 589.505 589.093 688.094 588.924 786.663C588.924 792.368 588.756 797.547 588.922 803.033L588.924 803.088V803.142Z" fill="black" stroke="black" stroke-width="7.21854"/>
<path d="M859.572 450.098C857.405 454.601 855.737 458.27 854.055 461.97L854.038 462.007L854.021 462.043C829.636 512.662 805.402 563.317 781.011 613.783L780.989 613.826C780.386 615.032 780.234 615.773 780.234 616.334C780.234 616.893 780.385 617.63 780.983 618.829C805.697 666.071 830.087 713.505 854.62 760.722L855.079 761.591C856.135 763.622 857.09 765.709 858.272 768.369L860.193 772.692L855.518 773.403C847.759 774.584 840.678 775.596 833.437 776.606L833.428 776.607L833.42 776.608C809.695 779.805 785.823 783 762.119 786.362L762.118 786.361C759.579 786.723 756.861 786.817 754.359 785.584C751.793 784.319 750.16 782.021 748.913 779.25V779.251C737.094 753.57 725.018 728.013 712.904 702.459V784.638C712.904 786.561 712.738 788.987 711.25 790.957C709.654 793.069 707.227 793.813 704.864 794.108L704.863 794.107C677.629 797.638 650.224 801.337 622.979 805.037L622.737 805.07H622.493C621.921 805.07 621.015 805.069 619.713 804.852L616.697 804.35V801.293C616.697 800.759 616.637 800.154 616.549 799.315C616.469 798.556 616.36 797.563 616.36 796.582C616.36 693.293 616.697 590.165 616.865 486.887L616.866 485.712C616.871 484.561 616.892 483.498 616.988 482.6C617.117 481.4 617.43 479.844 618.567 478.531C619.714 477.208 621.216 476.686 622.393 476.401C623.264 476.19 624.307 476.034 625.43 475.885L626.576 475.737C639.775 473.972 652.974 472.207 666.173 470.441C679.378 468.675 692.584 466.909 705.789 465.142L706.026 465.11H706.268C706.51 465.11 706.781 465.086 707.42 465.037C708 464.992 708.738 464.942 709.632 464.942L709.888 464.951C711.137 465.036 711.952 465.726 712.317 466.121C712.704 466.539 712.906 466.952 712.991 467.142C713.173 467.545 713.257 467.917 713.294 468.089C713.38 468.492 713.434 468.948 713.474 469.356C713.556 470.216 713.621 471.403 713.673 472.82C713.778 475.677 713.844 479.722 713.88 484.532C713.951 494.164 713.903 506.992 713.809 519.802C713.717 532.222 713.579 544.642 713.463 554.142C715.409 549.535 717.349 544.941 719.249 540.348C729.696 515.074 740.272 490.062 750.53 464.837C751.388 462.699 752.603 460.921 754.437 459.641C756.215 458.4 758.242 457.865 760.261 457.577L760.284 457.573L760.309 457.57C790.24 453.703 820.147 449.502 850.118 445.461L850.16 445.455L850.202 445.45C851.06 445.355 851.992 445.305 852.837 445.248C853.724 445.187 854.69 445.11 855.843 444.956L862.475 444.071L859.572 450.098Z" fill="black" stroke="black" stroke-width="7.21854"/>
<path d="M316.918 518.439V528.11C316.834 579.755 316.708 631.359 316.582 682.96C316.455 734.562 316.33 786.163 316.246 837.805C316.245 840.049 315.98 842.608 314.195 844.576C312.465 846.483 309.974 847.075 307.823 847.419L307.768 847.428L307.711 847.435C281.478 850.798 255.284 854.493 228.835 858.031L228.82 858.032L228.805 858.034C227.551 858.191 226.296 858.354 225.283 858.365C224.34 858.374 222.625 858.292 221.223 857.022C219.844 855.772 219.571 854.092 219.47 853.165C219.36 852.152 219.365 850.874 219.365 849.574V849.568C219.533 756.538 219.869 663.676 220.206 570.651V538.198C220.206 536.66 220.26 534.388 221.574 532.511C223.038 530.419 225.356 529.703 227.533 529.406L227.545 529.405L227.557 529.404C254.797 525.872 282.208 522.173 309.458 518.472L309.701 518.439H316.918Z" fill="black" stroke="black" stroke-width="7.21854"/>
</g>
<defs>
<clipPath id="clip0_524_2449">
<rect width="788.452" height="689.253" fill="white" transform="translate(145.548 195.847)"/>
</clipPath>
</defs>
</svg>
